<svg width="172" height="192" viewBox="0 0 172 192" fill="none" xmlns="http://www.w3.org/2000/svg">
<path fill-rule="evenodd" clip-rule="evenodd" d="M168.3 44.9C166.2 46.5 163.9 47.6 161.4 48.4C159.3 49.1 157 49.5 155.4 51.3C155.333 51.3666 155.267 51.4 155.2 51.4C150.7 56.9 146.1 62.2 141.8 67.8C133.9 78.2 126.6 88.9 119.9 100.1C115 108.3 110.3 116.7 106.1 125.3C105.967 125.567 105.833 125.833 105.7 126.1C104.767 128.033 103.867 129.967 103 131.9C110.5 121.4 118.3 111 127.2 101.7C131.8 96.9 136.8 92.3 142.6 89C146.9 86.6 153.2 84.4 157.5 87.8C157.9 88.0666 158.233 88.3667 158.5 88.7C158.7 88.8 158.8 88.9 158.9 89.1C162 93 160.4 99.2 158.7 103.4C156.3 109.4 152.4 114.5 148 119C143.2 124 137.8 128.4 132.4 132.6C126.867 136.867 121.167 140.867 115.3 144.6C109.4 148.3 103.2 151.8 96.9 154.8C97.1 155.2 97.1 155.7 96.8 156.2C93.8 161.4 88.1 164.5 82.1 164.7C81.9667 164.7 81.8334 164.7 81.7 164.7C81.7 165.967 81.7334 167.233 81.8 168.5C81.8667 170.9 81.9 173.3 81.9 175.7C82.1 180.6 82.1 185.5 82.1 190.5C82.1 191.8 80.1 191.8 80.1 190.5C80.1 185.5 80.1 180.6 80.1 175.7C80.1667 173.3 80.2 170.9 80.2 168.5C80.2667 167.233 80.3 165.967 80.3 164.7C80.3 164.7 80.3 164.667 80.3 164.6C77.9 164.4 75.5 163.7 73.3 162.7C69.9 161.1 68.6 158.1 66.1 155.8C63.1 153 58.9 150.8 55.5 148.5C50.7 145.2 46 141.7 41.6 137.8C32.8 130.1 24.4 120.9 19.8 110C17.6 104.8 15.9 98.3 17.3 92.7C17.4334 92.0333 17.6334 91.4333 17.9 90.9C17.7 90.5 18.1 90.2 18.4 90.2C20.4 87 24.2 85.7 28.1 86.4C33.8 87.3 37.7 92.4 41 96.6C45 101.6 48.5 106.9 51.9 112.3C55.7 118.5 59.2 124.9 62.6 131.4C60.8 126.4 58.8667 121.433 56.8 116.5C51.8 104.9 46 93.7 39.2 83.2C35.7334 77.8 32.0667 72.5666 28.2 67.5C26.2667 64.9666 24.2667 62.4666 22.2 60C20.5 58 18.6 56.1 17 54C16.6 54.4 15.9 54.4 15.7 53.7C15.7 53.6333 15.7 53.6 15.7 53.6C13 53.5 10.4 53 7.80003 52.2C5.70003 51.5 3.40003 50.6 1.80003 48.9C1.10003 48.1 0.400024 47 0.400024 46C0.500024 44.7 1.60002 44.3 2.70002 44.3C4.80002 44.3 7.10002 44.7 9.20002 45.2C8.30002 43.5 7.70002 41.4 7.90002 39.5C8.10002 38.4 8.50002 37.3 9.40002 36.7C10.4 36.2 11.5 36.3 12.4 37C13.3 37.7 13.9 38.8 14.3 39.9C14.9 41.3667 15.4 42.8667 15.8 44.4C16.2 45.8667 16.5334 47.3333 16.8 48.8C17 49.9 17.2 51 17.3 52.1C20 54.5 22.2 57.6 24.4 60.3C26.6 63.0333 28.7334 65.8 30.8 68.6C40.1 81.2 48.2 94.8 54.7 109.1C53.7 106.233 52.8 103.3 52 100.3C48.1 86.6 46 72 48.6 57.8C49 55.6 49.7 53.1 51 51C51 50.9333 50.9667 50.8666 50.9 50.8C50.9 50.5 51.2 50.3 51.5 50.2C52.7 48.5 54.4 47.1 56.6 46.7C62.3 45.8 66.2 51.5 68.2 56C71 62.5 72.6 69.5 73.9 76.4C75.3 83.9 76.5 91.4 77.4 98.9C78.9 111.4 79.8 124 80.4 136.6C80.6 133 80.7 129.4 81 125.8C81.3334 121.133 81.7334 116.433 82.2 111.7C83.7 95.3 85.8 78.8 89.4 62.6C91.2 54.6 93.4 46.6 96.1 38.8C97.4334 35 98.9 31.2 100.5 27.4C101.8 24.2 103.3 21.1 104.7 18C104.633 17.8666 104.633 17.7 104.7 17.5C104.767 17.3666 104.833 17.2 104.9 17C104.3 16.3 103.9 15.4 103.5 14.5C103.1 13.3666 102.767 12.1667 102.5 10.9C102.1 8.5 102 5.79998 102.6 3.49998C102.9 2.39998 103.6 1.29998 104.8 0.999979C106 0.699979 107 1.29997 107.6 2.29997C108.2 3.39997 108.6 4.69998 108.8 5.99998C109.8 4.79998 111 3.79999 112.3 3.19999C113.3 2.69999 114.6 2.49998 115.7 2.99998C116.6 3.49998 117.2 4.5 117.4 5.4C117.9 7.7 116.5 9.79997 115 11.3C113.6 12.7 111.9 13.7 110.3 14.8C109.5 15.3 108.7 15.9 107.9 16.5C107.6 16.8 107.2 17.2 106.9 17.5C104.6 21.4 102.7 25.7 101 29.9C99.3334 34.1 97.8 38.3333 96.4 42.6C91.3 58.2 88.1 74.3 85.8 90.4C84.7334 98.6667 83.8 106.933 83 115.2C82.5334 119.867 82.0667 124.533 81.6 129.2C83.5 117.9 85.7 106.7 88.6 95.6C90.4 88.5 92.4 81.5 95 74.7C97.1 68.9 99.5 63.2 103.3 58.3C106.4 54.4 112 48.7 117.6 51C117.867 51.1333 118.167 51.2667 118.5 51.4C118.8 51 119.5 51.2 119.4 51.8C119.4 51.8666 119.4 51.9333 119.4 52C120.7 53.1 121.7 54.7 122.4 56.2C122.6 56.1 122.9 56.3 122.9 56.5C122.833 56.7 122.8 56.8666 122.8 57C123.9 59.5 124.4 62.2 124.6 65C125 71.3 123.5 77.8 122 84C120.4 90.6 118.2 97.1 115.7 103.5C115.433 104.233 115.167 104.933 114.9 105.6C119.7 96.9333 124.933 88.5 130.6 80.3C134.267 75.0333 138.067 69.8666 142 64.8C146 59.6 150.2 54.3 154.7 49.5C154.833 49.3666 154.967 49.3 155.1 49.3C154.9 48.2 154.9 47 154.9 45.9C154.8 44.4 155 42.9 155.1 41.4C155.4 39 155.6 36.1 157.1 34.1C157.8 33.3 158.8 32.7 159.8 33.2C160.7 33.6 161.2 34.5 161.5 35.4C162 36.9 162.1 38.6 162 40.2C163.1 39.4 164.3 38.7 165.5 38.2C167.4 37.4 170.1 37.5 171.1 39.7C172.2 41.9 169.9 43.7 168.3 44.9ZM63.1 152.3C60.4 150 57.9 147.6 55.4 145.2C40.6 130.6 24.9 115.2 18.3 95C18.2 96.4 18.2 97.9 18.4 99.3C19 105.1 21.3 110.6 24.3 115.6C33.1 130.2 46.7 141.1 60.7 150.6C61.5 151.133 62.3 151.7 63.1 152.3ZM70.3 155.9C66.8 153.4 63.5 150.4 60.5 147.4C52.4 139.3 45.2 130.2 38.3 121C31.4 111.7 24.9 102.1 18.8 92.3C18.6 92.9 18.4334 93.5333 18.3 94.2C20.3 99.5 22.9 104.6 25.9 109.4C31.5 118.5 38.6 126.6 45.9 134.3C49.7 138.2 53.6 142 57.4 145.8C61.2 149.5 65.1 153 69.5 155.9C69.7667 155.9 70.0334 155.9 70.3 155.9ZM72.3 155.9C71.3 154.833 70.3334 153.733 69.4 152.6C67.3334 150.133 65.3334 147.6 63.4 145C56.5 135.6 50.3 125.6 43.9 115.9C40.7 111 37.3 106.1 33.8 101.4C32 99 30.1334 96.6333 28.2 94.3C26.4 92.2 24.4 90.2 22.7 88C21.4 88.6 20.3 89.4 19.5 90.6C19.4334 90.7333 19.3667 90.9 19.3 91.1C22.6334 96.6333 26.1334 102.067 29.8 107.4C36.5 117.1 43.6 126.6 51.1 135.7C54.6 140 58.3 144.2 62.3 148C65.2 150.9 68.4 153.5 71.7 155.9C71.9 155.9 72.1 155.9 72.3 155.9ZM75.4 155.9C74.5 153.5 73.7 151 72.9 148.6C71.5667 144.667 70.3 140.733 69.1 136.8C64.9 122.8 61.3 108.6 58.3 94.3C55.4 80.8 52.9 67.1 51.3 53.4C50.8 54.4 50.5 55.5 50.2 56.6C49.5 59.8 49.1 63.2 49 66.5C47.4 94.9 61.2 120.8 70.4 146.8C70.7 147.5 69.6 147.9 69.3 147.3C63.2 135 57.1 122.8 49.8 111.3C46.5 106 43 101 39.1 96.1C35.8 92 31.7 87.3 25.9 87.4C25.0334 87.4 24.2 87.5333 23.4 87.8C25.8 89.7 27.8 92.3 29.8 94.7C31.8667 97.1667 33.8334 99.7 35.7 102.3C42.7 111.7 48.8 121.7 55.3 131.4C58.5 136.3 61.8 141.1 65.3 145.7C67.1 148.1 69 150.433 71 152.7C71.8667 153.767 72.8 154.833 73.8 155.9C74.3334 155.9 74.8667 155.9 75.4 155.9ZM78.1 155.7C77 153.1 76.2 150.3 75.3 147.6C74.1 143.8 73 139.9 72 135.9C70.2 128.8 68.9 121.5 67.5 114.3C66.1 107.2 64.9 100 63.8 92.9C62.5334 85.2333 61.2667 77.5667 60 69.9C59.4 66.1 58.8 62.3333 58.2 58.6C57.7 55.1 57 51.6 56.6 48.1C55.5 48.4 54.4 48.9 53.6 49.8C53.1334 50.2666 52.7 50.7666 52.3 51.3C53.4 59.3 54.5 67.2 55.8 75.1C58.2 89.4 61.3 103.5 64.9 117.6C66.7 124.667 68.6667 131.7 70.8 138.7C71.8667 142.233 72.9334 145.733 74 149.2C74.7 151.4 75.5 153.6 76.2 155.8C76.8 155.8 77.4334 155.767 78.1 155.7ZM79.7 155.6C78.9 152.8 78.3 149.8 77.8 147C77 142.867 76.3 138.767 75.7 134.7C73.3 120 71.5 105.2 69.1 90.4C66.7 76 63.5 61.7 58.5 48C58.1 48 57.7334 48 57.4 48C58.2 52 58.8 56.2 59.5 60.2C60.1667 64.4 60.8334 68.6333 61.5 72.9C63.9 87.5 66.2 102.2 68.7 116.8C69.9 123.9 71.6 130.9 73.5 137.9C74.4334 141.367 75.4334 144.8 76.5 148.2C77.3 150.7 78.2 153.2 79.1 155.7C79.3 155.7 79.5 155.667 79.7 155.6ZM86.3 135.2C93.9 106.9 103 78.7 114.8 51.8C114.2 51.8 113.6 51.9 112.9 52.1C109.9 53 107.5 55.3 105.5 57.6C103.6 59.8 102 62.3 100.6 64.9C97.6 70.5 95.5 76.7 93.5 82.8C91.5 89.3 89.7 95.9 88.2 102.6C85 116.4 82.5 130.3 80.7 144.3C80.6 145.2 79.4 145.2 79.4 144.3C78.8 128.2 77.7 112.1 75.6 96.1C74.7 88.9 73.6 81.7 72.2 74.5C70.9 67.9 69.4 61 66.3 54.9C65 52.5 63.3 50 60.8 48.7C60.4667 48.5667 60.1667 48.4333 59.9 48.3C62.6 55.8 64.8 63.5 66.5 71.2C69.8 85.6 71.8 100.3 73.7 115C74.7 122.467 75.8 129.9 77 137.3C77.6 140.967 78.2667 144.633 79 148.3C79.5 150.7 80.1 153.2 80.7 155.6C80.8334 155.6 81 155.567 81.2 155.5C82.7334 148.7 84.4334 141.933 86.3 135.2ZM83.7 155.3C84.7 152.6 85.8 149.9 86.8 147.3C88.2667 143.367 89.7 139.433 91.1 135.5C96.1667 121.633 100.967 107.733 105.5 93.8C107.767 86.8666 109.933 79.9 112 72.9C113.133 69.3667 114.2 65.8 115.2 62.2C116.1 59.1 116.9 55.8 118 52.7C117.333 52.2333 116.567 51.9333 115.7 51.8C112.6 59.5 109.5 67.1 106.6 74.9C101.4 88.6 96.5 102.5 92.3 116.6C88.4 129.4 85.1 142.4 82.1 155.5C82.6334 155.433 83.1667 155.367 83.7 155.3ZM86.3 155.1C89.2 148.8 92.1 142.5 94.8 136.2C100.5 123.3 106.5 110.5 111 97.1C113.3 90.4 115.5 83.7 117.5 76.9C119.3 70.8 120.7 64.5 122 58.2C121.3 56.4 120.3 54.7 119 53.5C118.2 57 117 60.5 115.9 63.9C114.7 67.9 113.5 71.9 112.3 75.9C107.967 89.9667 103.367 103.933 98.5 117.8C96.1 124.867 93.6 131.867 91 138.8C89.7334 142.333 88.4334 145.833 87.1 149.3C86.3 151.3 85.6 153.2 84.8 155.2C85.2667 155.133 85.7667 155.1 86.3 155.1ZM150.4 108.2C138.2 127.6 118.9 140.7 99.1 152C105.5 148.7 111.7 145 117.8 141.1C123.4 137.433 128.8 133.5 134 129.3C139 125.3 143.9 121.2 148.2 116.5C152.3 112.1 156 107 157.9 101.2C158.8 98.5 159.5 95.5 158.9 92.6C158.767 92.1333 158.6 91.7 158.4 91.3C156.7 97.2 153.7 103 150.4 108.2ZM156 88.6C152.3 94.6 148.1 100.2 143.8 105.7C135.9 115.9 127.3 125.4 117.9 134.3C113.167 138.767 108.3 143.033 103.3 147.1C100.833 149.1 98.3334 151.033 95.8 152.9C100.2 150.3 104.6 147.7 109 145C120.1 138 130.7 130.2 139.6 120.5C143.7 116 147.4 111.1 150.5 105.9C151.967 103.367 153.3 100.733 154.5 98C155.7 95.4 156.6 92.7 157.5 89.9C157.033 89.4333 156.533 89 156 88.6ZM150.7 87.7C145.6 92.6 140.7 97.8 136.1 103.1C127.8 112.5 120 122.4 111.9 132C107.9 136.7 103.8 141.5 99.5 146C97.4334 148.267 95.3 150.467 93.1 152.6C92.4334 153.2 91.7667 153.833 91.1 154.5C91.3 154.433 91.5334 154.4 91.8 154.4C96.2 151.2 100.5 148 104.7 144.5C114.5 136.4 123.7 127.6 132.2 118.1C136.533 113.3 140.667 108.333 144.6 103.2C148.3 98.3 151.8 93.3 155.2 88.3C154.533 87.9666 153.767 87.7667 152.9 87.7C152.167 87.6333 151.433 87.6333 150.7 87.7ZM115.6 100.3C117.9 94.2 119.8 87.9 121.3 81.5C122.7 75.6 123.9 69.5 123.2 63.4C123.1 62.2 122.8 60.8 122.4 59.4C121.3 66.4 119.7 73.3 117.7 80C113.7 93.6 108.4 106.7 103 119.7C100.3 126.1 97.5 132.4 94.6 138.7C92.2 144.1 89.8 149.5 87.4 155C88.2 154.867 88.9667 154.767 89.7 154.7C90.9 153.433 92.1 152.2 93.3 151C95.7 148.467 98.0667 145.933 100.4 143.4C116.9 125.4 130.9 105.3 148.3 88.2C144.3 89.3 140.5 91.9 137.4 94.3C132.2 98.4 127.6 103.3 123.2 108.3C114 118.7 105.9 130.1 97.9 141.5C97.4 142.3 96.2 141.6 96.6 140.8C103.5 127.5 110.4 114.3 115.6 100.3Z" fill="white"/>
</svg>
