<svg width="206" height="120" viewBox="0 0 206 120" fill="none" xmlns="http://www.w3.org/2000/svg">
<path fill-rule="evenodd" clip-rule="evenodd" d="M203.5 15.6C200.4 19.6 195.4 21.7 190.6 22.9C184.6 24.5 178.4 25.4 172.2 25.9C172.1 25.9 172.1 25.8 172 25.8C168.7 27.3 165.3 28.7 161.9 30.2C159.767 31.2 157.633 32.2 155.5 33.2C155.633 33.2667 155.733 33.3 155.8 33.3C163.4 33.5 171 34.6 178.3 36.6C181.6 37.6 184.8 38.7 187.9 40.1C190.5 41.2 193.8 42.7 195.1 45.3C196.4 47.8 194.9 50.4 193 52C190.8 53.8 187.9 54.6 185.1 54.7C178.7 54.8 172.6 50.9 167.5 47.4C162.2 43.7 157.5 39.3 153.4 34.3C147.9 37.2 142.5 40.5 137.7 44.5C136.7 45.3 135.7 46.3 134.7 47.2C137 46.9 139.4 46.7 141.8 46.6C144.6 46.4 147.5 46.2 150.3 46.4C154.2 46.7 158.9 47.7 161.8 50.5C162.6 51.4 163.4 52.7 163 53.9C163.3 54 163.2 54.5 162.8 54.5C162.8 54.4333 162.767 54.4 162.7 54.4C161.7 55.9 159.1 55.9 157.5 55.8C155.1 55.7 152.7 55.2 150.4 54.7C148.2 54.3 146 53.9 143.8 53.3C140.1 52.4 136.1 51 133 48.7C128 53.5 123.6 58.8 119.8 64.5C118 67.1 116.5 69.7 114.9 72.4C120.3 69.6 125.8 67.1 131.5 65.3C134.4 64.4 137.3 63.7 140.3 63.1C142.9 62.7 145.7 62.4 148.3 63C150.1 63.5 152.6 64.5 152.5 66.8C152.5 69 150.1 70.6 148.3 71.5C137.8 77.1 125.4 73 114.2 73.8C106.5 87.9 101.4 103.4 98 118.9C97.9 119.6 96.8 119.3 97 118.6C99.8 107.5 102.8 96.4 107.3 85.7C108.9 81.8333 110.733 78 112.8 74.2C109.7 70.7 107.9 66 107 61.5C106.2 57.2 106.2 52.8 107.2 48.5C107.7 46.8 108.2 44.3 109.7 43.1C110.1 42.8 110.6 42.6 111.1 42.5C111 41.9 111.9 41.9 111.9 42.5C112.4 42.6 112.9 42.8 113.3 43.2C113.9 44 114.1 45.2 114.3 46.1C114.633 47.2333 114.867 48.3667 115 49.5C115.3 52.1 115.3 54.7 115.2 57.3C114.9 62.2 114.2 67 114.1 71.9C119 63.2 125 55.1 132.2 48.2C129.3 43.4 128 37.4 127.9 31.8C127.8 26.9 128.6 21.6 130.7 17.1C131.5 15.3 132.7 13.5 134.6 12.7C135.4 12.3 136.2 12.3 136.8 12.5C137 12.3 137.6 12.3 137.6 12.8C137.6 12.8667 137.6 12.9333 137.6 13C138.1 13.5 138.5 14.2 138.9 15C140.7 19.6 138 25.1 136.9 29.6C135.4 35.2 134.4 40.9 133.7 46.7C135.433 45.0333 137.267 43.4667 139.2 42C143.4 38.8 148 36 152.8 33.6C152.6 33.5 152.5 33.4 152.6 33.2C152.667 33.0667 152.7 32.9333 152.7 32.8C152.7 32.2667 152.7 31.7333 152.7 31.2C151.6 26.5 151.5 21.7 152.3 16.9C153.1 12.1 154.8 7.19999 157.5 3.09999C158.4 1.79999 160 0.199997 161.8 0.899997C163.7 1.6 164.2 3.99999 164.4 5.69999C164.8 10.6 162.4 15.5 160.2 19.7C157.9 23.8 155.5 27.9 153.8 32.3C153.867 32.5 153.933 32.7 154 32.9C157.3 31.2 160.8 29.7 164.2 28.2C166.6 27.1333 169 26.1 171.4 25.1C171.4 25 171.4 25 171.4 25C174.4 19.6 178.8 14.8 183.8 11.2C188.1 7.89999 193.6 5.1 199.1 6C200.8 6.2 202.6 6.89999 203.8 8.09999C203.867 8.09999 203.9 8.09999 203.9 8.09999C204.3 7.89999 204.5 8.39999 204.3 8.69999C204.433 8.89999 204.567 9.1 204.7 9.3C205.8 11.4 204.9 13.8 203.5 15.6ZM109.5 57.5C109.5 57.3 109.9 57.3 109.9 57.5C110.3 62.1 111.3 66.5 112.7 70.9C112.3 61.8 111.9 52.7 111.1 43.6C110.8 44.4 110.6 45.2 110.5 46C110.367 46.9333 110.267 47.9 110.2 48.9C110.1 50.8 110.1 52.7 110 54.7C110 55.2 109.3 55.2 109.3 54.7C109.3 52.5 109.3 50.4 109.4 48.3C109.6 46.6 109.7 44.7 110.7 43.3C110.433 43.4333 110.167 43.6333 109.9 43.9C109.2 44.7 108.9 45.9 108.7 46.9C108.2 48.8 107.8 50.6 107.7 52.5C107.3 56.3 107.7 60.2 108.8 63.8C109.5 66.5 110.7 68.9 112.1 71.2C110.7 66.8 109.9 62.2 109.5 57.5ZM113.4 68.8C113.6 65.2 114.1 61.6 114.4 58C114.7 53.6 114.7 48.9 113.3 44.7C113 44 112.7 43.4 112 43.2C112.533 51.7333 113 60.2667 113.4 68.8ZM128.1 67.6C127.767 67.7333 127.433 67.8667 127.1 68C129.7 67.2667 132.267 66.6333 134.8 66.1C137.8 65.5 140.8 65.1 143.9 65C145.433 64.9333 146.967 64.9333 148.5 65C149.2 65 149.9 65 150.6 65.2C148.8 63.6 145.6 63.6 143.5 63.8C138.3 64.2 133 65.9 128.1 67.6ZM116.5 72.6C121.7 72.4 127 73.2 132.2 73.3C137.1 73.5 142.2 73.2 146.7 71.1C148.2 70.4 151.9 68.5 151.5 66.4C150.2 66.3 148.9 66.1 147.6 66.1C146.133 66.1 144.667 66.1333 143.2 66.2C140.267 66.4 137.333 66.8 134.4 67.4C128.6 68.7 123.1 70.8 117.4 72.5C117.3 72.5 117.2 72.4 117.1 72.3C116.9 72.4333 116.7 72.5333 116.5 72.6ZM131.9 45.1C131.4 42.9 131.2 40.7 131 38.6C130.7 35.6 130.7 32.6 131 29.6C131.4 24.1 132.8 18.8 134.8 13.7C134.733 13.7667 134.633 13.8333 134.5 13.9C134.033 14.1667 133.6 14.5 133.2 14.9C131.8 16.6 131 18.7 130.4 20.7C129.1 25.1 128.7 29.8 129.1 34.4C129.4 38.1 130.5 41.6 131.9 45.1ZM135.8 27.8C135.1 31.1 134.2 34.4 133.8 37.8C133.5 40.2 133.3 42.6 133.3 45C133.9 40.3 134.8 35.6 135.9 31C136.5 28.6 137.1 26.2 137.8 23.8C138.4 21.6 138.9 19.3 138.6 17C138.4 16.1 138.1 15.2 137.6 14.5C137.5 17.8 137.1 21.1 136.2 24.4C136.1 24.6 135.8 24.5 135.9 24.3C136.8 20.9 137.1 17.3 136.7 13.7C136.6 13.7 136.5 13.6 136.4 13.5C136 13.4 135.7 13.4 135.4 13.5C133.3 18.7 132 24.2 131.6 29.8C131.4 32.7 131.4 35.5 131.5 38.3C131.6 41 132.2 43.5 132.6 46C132.7 43.1 132.8 40.3 133.2 37.4C133.6 34.2 134.2 30.7 135.3 27.7C135.4 27.4 135.8 27.5 135.8 27.8ZM137.5 47.8C138.567 47.8667 139.6 47.9 140.6 47.9C142.667 47.9667 144.767 48.1 146.9 48.3C151 48.7 155.2 49.3 159.2 50.6C159.7 50.8 159.5 51.5 159 51.4C154.8 50.2 150.6 49.4 146.2 49C144.133 48.8667 142.1 48.7667 140.1 48.7C139.567 48.7 139 48.7 138.4 48.7C146.2 50.5 154.1 52.2 162 53.7C162.067 53.4333 162.067 53.1667 162 52.9C161.7 51 159.3 49.9 157.8 49.2C151.4 46.3 144.4 47.4 137.5 47.8ZM135.6 48.7C136.5 49.3 137.4 49.8 138.4 50.2C140.4 51.1 142.5 51.7 144.5 52.3C148.2 53.3 152.1 54.1 155.9 54.6C156.9 54.7 160.1 55.1 161.5 54.2C152.8 52.7 144.2 50.8 135.6 48.7ZM155.1 17.1C156.5 11.9 158.4 6.6 161.2 1.9C161.4 1.6 161.9 1.89999 161.7 2.19999C159.1 7.09999 156.8 12.1 155.4 17.4C154.7 20.1 154.3 22.9 154 25.7C153.933 26.6333 153.867 27.6 153.8 28.6C154.6 25.6 155.6 22.7 156.6 19.9C158 15.6 159.5 11.4 161.3 7.3C161.5 6.9 162.1 7.19999 162 7.59999C160.3 11.8 158.7 16 157.2 20.3C156.3 22.9 155.6 25.5 154.8 28.1C156.1 25.5 157.6 22.9 159 20.4C161.1 16.5 163 12.2 163.4 7.8C163.6 6 163.5 0.899994 160.4 1.59999C158.3 2.09999 157 5.29999 156.2 7.09999C152.9 13.6 151.9 20.9 152.9 28C153.033 27 153.167 26.0667 153.3 25.2C153.7 22.4 154.4 19.8 155.1 17.1ZM187.3 53.5C181.1 51.3 175.3 48 169.5 44.8C167.9 44 166.3 43.2 164.9 42.1C163.5 41.2 162.3 40.1 160.9 39.2C159.8 38.5 158.4 37.9 157.2 37.2C160.6 40.9 164.5 44.2 168.7 47.1C173.5 50.3 179.1 53.8 185.1 53.7C185.833 53.7 186.567 53.6333 187.3 53.5ZM188.8 45.2C183.6 42.2 177.7 40.2 171.9 38.6C169.1 37.8 166.2 37.1 163.3 36.3C160.9 35.7 158.4 35.2 156 34.5C158.2 35.9 160.6 36.7 163 37.8C166.2 39.1 169 41.4 172.1 42.9C175.5 44.6 179 46.1 182.4 47.6C185.8 49 189.2 50 192.6 51C192.8 50.9 192.9 50.8 193.1 50.7C193.6 50.1 194.1 49.4 194.4 48.7C194.133 48.4333 193.867 48.1667 193.6 47.9C193.267 47.6333 192.9 47.4 192.5 47.2C192.4 47.2 192.4 47 192.5 46.9C192.5 46.8 192.7 46.8 192.8 46.8C193.2 47 193.6 47.2333 194 47.5C194.2 47.7 194.4 47.9 194.6 48.1C194.8 47.3 194.7 46.5 194.4 45.8C193.8 44.5 192.6 43.6 191.4 42.9C186.1 39.6 179.6 37.7 173.5 36.3C168.9 35.3 164.3 34.6 159.7 34.3C161.1 34.7 162.6 35.2 164 35.6C166.8 36.4 169.7 37.2 172.6 38C178.3 39.8 183.7 42 188.9 45.1C189 45.1 188.9 45.2 188.8 45.2ZM155 34.7C155.067 34.8333 155.133 34.9333 155.2 35C157.3 36.7 159.9 37.5 162.1 39C163.3 39.9 164.5 41 165.8 42C167.1 42.9 168.5 43.7 169.9 44.5C176 47.7 182.1 50.8 188.6 53.2C189.8 52.8 191 52.3 192 51.6C188.5 50.8 185.1 49.4 181.8 48C178.4 46.7 175 45.2 171.7 43.6C168.5 42 165.6 39.6 162.3 38.1C159.8 37 157.2 36.2 155 34.7ZM173.2 23.6C177.5 19.8 182.2 16.5 187.1 13.6C191.8 10.8 196.7 8.5 202.2 8C200.3 6.8 197.7 6.6 195.4 6.8C190.2 7.5 185.5 10.7 181.6 14.1C178.3 16.9 175.6 20.1 173.2 23.6ZM174.1 23.9C175.3 23.3667 176.5 22.8333 177.7 22.3C182.1 20.3 186.3 18.1 190.6 15.9C191.1 15.6 191.4 16.2 191 16.5C186.8 19.3 182.1 21.4 177.5 23.4C179.433 22.9333 181.4 22.4667 183.4 22C185.9 21.3 188.4 20.6 190.8 19.6C195.8 17.7 200.4 14.7 202.6 9.69999C201.733 10.2333 200.833 10.7667 199.9 11.3L195.5 13.7C195.2 13.9 194.9 13.4 195.2 13.2C196.667 12.3333 198.1 11.4667 199.5 10.6C200.567 9.99999 201.6 9.4 202.6 8.8C197.1 8.8 191.7 11.7 187.1 14.5C182.5 17.2 178.2 20.5 174.1 23.9ZM203.8 9.9C202.9 12.2 201.1 14.2 199.3 15.7C197.2 17.5 194.8 18.9 192.2 20C187.4 22.1 182.2 23.2 177 24.2C181.5 23.6 186 22.9 190.4 21.8C194.8 20.6 199.2 18.9 202.2 15.4C203.6 13.9 204.5 11.7 203.8 9.9Z" fill="#9AA977"/>
<path d="M150.7 66.4C149.5 66.7 148.3 67.5 147.1 68C145.967 68.4 144.8 68.7667 143.6 69.1C140.9 69.8 138.2 70.2 135.5 70.4C130 70.9 124.5 71.1 119.1 72.3C118.9 72.3 119 72.6 119.2 72.6C125 71.5 130.9 71.6 136.8 71.1C139.3 70.8 141.8 70.4 144.2 69.8C145.467 69.4667 146.733 69.0333 148 68.5C149 68.1 150.2 67.7 151 66.9C151.1 66.7 151 66.4 150.7 66.4Z" fill="#9AA977"/>
<path fill-rule="evenodd" clip-rule="evenodd" d="M1.40002 9.3C1.53335 9.1 1.66669 8.89999 1.80002 8.69999C1.60002 8.39999 1.90002 7.89999 2.30002 8.09999C3.50002 6.89999 5.30002 6.2 7.00002 6C12.6 5.1 18 7.89999 22.3 11.2C27.3 14.8 31.7 19.6 34.8 25C34.8 25 34.8 25 34.8 25.1C37.1334 26.1 39.5 27.1333 41.9 28.2C45.4 29.7 48.8 31.2 52.2 32.9C52.2667 32.7 52.3 32.5 52.3 32.3C50.7 27.9 48.2 23.8 46 19.7C43.7 15.5 41.4 10.6 41.8 5.69999C41.9 3.99999 42.4 1.6 44.3 0.899997C46.2 0.199997 47.7 1.79999 48.6 3.09999C51.4 7.19999 53.1 12.1 53.9 16.9C54.6 21.7 54.5 26.5 53.5 31.2C53.5 31.7333 53.4667 32.2667 53.4 32.8C53.4667 32.9333 53.5 33.0667 53.5 33.2C53.6 33.4 53.5 33.5 53.4 33.6C58.1 36 62.7 38.8 67 42C68.8667 43.4667 70.7 45.0333 72.5 46.7C71.8 40.9 70.7 35.2 69.3 29.6C68.1 25.1 65.5 19.6 67.3 15C67.6 14.2 68 13.5 68.5 13C68.5 12.9333 68.5 12.8667 68.5 12.8C68.6 12.3 69.1 12.3 69.4 12.5C70 12.3 70.7 12.3 71.6 12.7C73.4 13.5 74.6 15.3 75.5 17.1C77.6 21.6 78.4 26.9 78.3 31.8C78.1 37.4 76.9 43.4 74 48.2C81.2 55.1 87.1 63.2 92.1 71.9C92 67 91.2 62.2 91 57.3C90.8 54.7 90.8 52.1 91.2 49.5C91.3333 48.3667 91.5334 47.2333 91.8 46.1C92 45.2 92.3 44 92.9 43.2C93.2 42.8 93.7 42.6 94.2 42.5C94.2 41.9 95.1 41.9 95.1 42.5C95.6 42.6 96 42.8 96.4 43.1C97.9 44.3 98.5 46.8 98.9 48.5C99.9 52.8 99.9 57.2 99.1 61.5C98.3 66 96.4 70.7 93.4 74.2C95.4 78 97.2333 81.8333 98.9 85.7C103.3 96.4 106.3 107.5 109.2 118.6C109.3 119.3 108.3 119.6 108.1 118.9C104.7 103.4 99.6 87.9 92 73.8C80.7 73 68.3 77.1 57.8 71.5C56 70.6 53.6 69 53.6 66.8C53.6 64.5 56 63.5 57.9 63C60.5 62.4 63.2 62.7 65.8 63.1C68.8 63.7 71.7 64.4 74.6 65.3C80.4 67.1 85.9 69.6 91.2 72.4C89.7 69.7 88.1 67.1 86.4 64.5C82.5 58.8 78.1 53.5 73.2 48.7C70.1 51 66 52.4 62.3 53.3C60.1 53.9 57.9 54.3 55.7 54.7C53.4 55.2 51 55.7 48.6 55.8C47 55.9 44.4 55.9 43.4 54.4C43.4 54.4 43.3667 54.4333 43.3 54.5C43 54.5 42.8 54 43.1 53.9C42.7 52.7 43.5 51.4 44.3 50.5C47.2 47.7 52 46.7 55.8 46.4C58.7 46.2 61.5 46.4 64.4 46.6C66.7 46.7 69.1 46.9 71.5 47.2C70.5 46.3 69.5 45.3 68.4 44.5C63.6 40.5 58.3 37.2 52.7 34.3C48.7 39.3 43.9 43.7 38.6 47.4C33.5 50.9 27.5 54.8 21 54.7C18.2 54.6 15.4 53.8 13.2 52C11.2 50.4 9.70002 47.8 11 45.3C12.3 42.7 15.7 41.2 18.2 40.1C21.3 38.7 24.6 37.6 27.9 36.6C35.2 34.6 42.7 33.5 50.3 33.3C50.4334 33.3 50.5334 33.2667 50.6 33.2C48.5334 32.2 46.4 31.2 44.2 30.2C40.9 28.7 37.5 27.3 34.1 25.8C34 25.8 34 25.9 33.9 25.9C27.8 25.4 21.5 24.5 15.6 22.9C10.8 21.7 5.70001 19.6 2.60001 15.6C1.30001 13.8 0.400017 11.4 1.40002 9.3ZM94.1 71.2C95.4 68.9 96.6 66.5 97.4 63.8C98.4 60.2 98.8 56.3 98.5 52.5C98.3 50.6 97.9 48.8 97.5 46.9C97.2 45.9 96.9 44.7 96.2 43.9C96 43.6333 95.7333 43.4333 95.4 43.3C96.4 44.7 96.6 46.6 96.7 48.3C96.9 50.4 96.9 52.5 96.9 54.7C96.9 55.2 96.1 55.2 96.1 54.7C96.1 52.7 96.1 50.8 95.9 48.9C95.8333 47.9 95.7334 46.9333 95.6 46C95.5 45.2 95.4 44.4 95 43.6C94.3 52.7 93.8 61.8 93.4 70.9C94.8 66.5 95.8 62.1 96.3 57.5C96.3 57.3 96.6 57.3 96.6 57.5C96.3 62.2 95.4 66.8 94.1 71.2ZM94.2 43.2C93.5 43.4 93.1 44 92.9 44.7C91.4 48.9 91.5 53.6 91.8 58C92.1 61.6 92.5 65.2 92.8 68.8C93.2 60.2667 93.6667 51.7333 94.2 43.2ZM62.7 63.8C60.5 63.6 57.3 63.6 55.5 65.2C56.2 65 56.9 65 57.6 65C59.1334 64.9333 60.6667 64.9333 62.2 65C65.3 65.1 68.4 65.5 71.4 66.1C73.9333 66.6333 76.4667 67.2667 79 68C78.6667 67.8667 78.3333 67.7333 78 67.6C73.1 65.9 67.9 64.2 62.7 63.8ZM89.1 72.3C89 72.4 88.9 72.5 88.7 72.5C83 70.8 77.5 68.7 71.7 67.4C68.8333 66.8 65.9 66.4 62.9 66.2C61.4333 66.1333 59.9667 66.1 58.5 66.1C57.2 66.1 56 66.3 54.7 66.4C54.2 68.5 58 70.4 59.5 71.1C64 73.2 69.1 73.5 73.9 73.3C79.2 73.2 84.4 72.4 89.7 72.6C89.5 72.5333 89.3 72.4333 89.1 72.3ZM77.1 34.4C77.5 29.8 77 25.1 75.7 20.7C75.1 18.7 74.4 16.6 72.9 14.9C72.5667 14.5 72.1667 14.1667 71.7 13.9C71.5667 13.8333 71.4334 13.7667 71.3 13.7C73.4 18.8 74.7 24.1 75.2 29.6C75.4 32.6 75.4 35.6 75.1 38.6C74.9 40.7 74.7 42.9 74.3 45.1C75.7 41.6 76.7 38.1 77.1 34.4ZM70.8 27.7C72 30.7 72.5 34.2 72.9 37.4C73.3 40.3 73.4 43.1 73.5 46C74 43.5 74.5 41 74.6 38.3C74.8 35.5 74.8 32.7 74.5 29.8C74.1 24.2 72.8 18.7 70.8 13.5C70.5 13.4 70.1 13.4 69.7 13.5C69.6 13.6 69.5 13.7 69.4 13.7C69 17.3 69.3 20.9 70.3 24.3C70.3 24.5 70 24.6 70 24.4C69 21.1 68.6 17.8 68.6 14.5C68 15.2 67.7 16.1 67.6 17C67.2 19.3 67.8 21.6 68.4 23.8C69 26.2 69.7 28.6 70.3 31C71.4 35.6 72.2 40.3 72.9 45C72.9 42.6 72.7 40.2 72.4 37.8C71.9 34.4 71 31.1 70.4 27.8C70.3 27.5 70.7 27.4 70.8 27.7ZM48.3 49.2C46.8 49.9 44.5 51 44.1 52.9C44.0334 53.1667 44.0667 53.4333 44.2 53.7C52 52.2 59.9 50.5 67.7 48.7C67.1667 48.7 66.6334 48.7 66.1 48.7C64.0334 48.7667 61.9667 48.8667 59.9 49C55.6 49.4 51.4 50.2 47.2 51.4C46.7 51.5 46.5 50.8 47 50.6C50.9 49.3 55.1 48.7 59.2 48.3C61.3333 48.1 63.4667 47.9667 65.6 47.9C66.6 47.9 67.6 47.8667 68.6 47.8C61.7 47.4 54.7 46.3 48.3 49.2ZM44.7 54.2C46 55.1 49.2 54.7 50.3 54.6C54.1 54.1 57.9 53.3 61.6 52.3C63.7 51.7 65.8 51.1 67.7 50.2C68.7 49.8 69.6 49.3 70.5 48.7C61.9 50.8 53.3 52.7 44.7 54.2ZM52.8 25.2C52.9334 26.0667 53.0667 27 53.2 28C54.3 20.9 53.2 13.6 50 7.09999C49.1 5.29999 47.8 2.09999 45.7 1.59999C42.6 0.899994 42.6 6 42.7 7.8C43.1 12.2 45 16.5 47.2 20.4C48.6 22.9 50.1 25.5 51.3 28.1C50.6 25.5 49.8 22.9 48.9 20.3C47.5 16 45.8 11.8 44.2 7.59999C44 7.19999 44.7 6.9 44.8 7.3C46.6 11.4 48.2 15.6 49.6 19.9C50.5 22.7 51.5 25.6 52.3 28.6C52.3 27.6 52.2334 26.6333 52.1 25.7C51.8 22.9 51.4 20.1 50.7 17.4C49.3 12.1 47 7.09999 44.4 2.19999C44.2 1.89999 44.8 1.6 45 1.9C47.7 6.6 49.6 11.9 51 17.1C51.8 19.8 52.4 22.4 52.8 25.2ZM21 53.7C27 53.8 32.7 50.3 37.5 47.1C41.7 44.2 45.5 40.9 49 37.2C47.7 37.9 46.4 38.5 45.2 39.2C43.8 40.1 42.6 41.2 41.2 42.1C39.8 43.2 38.2 44 36.7 44.8C30.9 48 25.1 51.3 18.8 53.5C19.5334 53.6333 20.2667 53.7 21 53.7ZM17.2 45.1C22.4 42 27.8 39.8 33.6 38C36.4 37.2 39.3 36.4 42.2 35.6C43.6 35.2 45 34.7 46.4 34.3C41.8 34.6 37.2 35.3 32.7 36.3C26.6 37.7 20 39.6 14.7 42.9C13.6 43.6 12.4 44.5 11.8 45.8C11.4 46.5 11.4 47.3 11.5 48.1C11.7 47.9 11.9333 47.7 12.2 47.5C12.5333 47.2333 12.9334 47 13.4 46.8C13.5 46.8 13.6 46.8 13.7 46.9C13.7 47 13.7 47.2 13.6 47.2C13.2 47.4 12.8333 47.6333 12.5 47.9C12.2333 48.1667 11.9667 48.4333 11.7 48.7C12 49.4 12.5 50.1 13.1 50.7C13.2 50.8 13.4 50.9 13.5 51C17 50 20.4 49 23.7 47.6C27.2 46.1 30.7 44.6 34 42.9C37.2 41.4 39.9 39.1 43.1 37.8C45.5 36.7 48 35.9 50.2 34.5C47.8 35.2 45.2 35.7 42.8 36.3C39.9 37.1 37.1 37.8 34.2 38.6C28.4 40.2 22.5 42.2 17.3 45.2C17.2 45.2 17.2 45.1 17.2 45.1ZM43.8 38.1C40.5 39.6 37.7 42 34.4 43.6C31.1 45.2 27.7 46.7 24.3 48C21 49.4 17.6 50.8 14.2 51.6C15.2 52.3 16.3 52.8 17.5 53.2C24 50.8 30.2 47.7 36.2 44.5C37.7 43.7 39.1 42.9 40.4 42C41.7 41 42.8 39.9 44.1 39C46.3 37.5 48.9 36.7 50.9 35C50.9667 34.9333 51.0667 34.8333 51.2 34.7C48.9 36.2 46.3 37 43.8 38.1ZM24.6 14.1C20.7 10.7 15.9 7.5 10.7 6.8C8.50001 6.6 5.90002 6.8 3.90002 8C9.40002 8.5 14.3 10.8 19 13.6C24 16.5 28.7 19.8 32.9 23.6C30.5 20.1 27.8 16.9 24.6 14.1ZM19.1 14.5C14.4 11.7 9.10002 8.8 3.50002 8.8C4.56668 9.4 5.60001 9.99999 6.60001 10.6C8.06668 11.4667 9.50002 12.3333 10.9 13.2C11.2 13.4 10.9 13.9 10.6 13.7L6.20001 11.3C5.33335 10.7667 4.43335 10.2333 3.50002 9.69999C5.70002 14.7 10.4 17.7 15.4 19.6C17.8 20.6 20.3 21.3 22.8 22C24.7334 22.4667 26.6667 22.9333 28.6 23.4C24 21.4 19.4 19.3 15.1 16.5C14.7 16.2 15.1 15.6 15.5 15.9C19.8 18.1 24 20.3 28.4 22.3C29.6 22.8333 30.8 23.3667 32 23.9C27.9 20.5 23.6 17.2 19.1 14.5ZM3.90002 15.4C6.90002 18.9 11.4 20.6 15.7 21.8C20.1 22.9 24.6 23.6 29.1 24.2C23.9 23.2 18.8 22.1 13.9 20C11.4 18.9 8.90002 17.5 6.80002 15.7C5.00002 14.2 3.20002 12.2 2.30002 9.9C1.60002 11.7 2.50002 13.9 3.90002 15.4Z" fill="#9AA977"/>
<path d="M55.4 66.4C56.7 66.7 57.8 67.5 59 68C60.1334 68.4 61.3 68.7667 62.5 69.1C65.2 69.8 67.9 70.2 70.7 70.4C76.1 70.9 81.7 71.1 87.1 72.3C87.3 72.3 87.2 72.6 87 72.6C81.2 71.5 75.2 71.6 69.4 71.1C66.8 70.8 64.3 70.4 61.9 69.8C60.6334 69.4667 59.4 69.0333 58.2 68.5C57.1 68.1 55.9 67.7 55.2 66.9C55 66.7 55.2 66.4 55.4 66.4Z" fill="#9AA977"/>
</svg>
