<svg width="160" height="63" viewBox="0 0 160 63" fill="none" xmlns="http://www.w3.org/2000/svg">
<path fill-rule="evenodd" clip-rule="evenodd" d="M159.2 42.5C159.2 43 159.1 43.3 158.9 43.6C159 44.8 158.2 46 156.8 45.8C155.8 45.8 155.2 45.2 155 44.4C153.3 44.1 151.7 43.7 150.1 43.3C147.833 42.8333 145.6 42.3333 143.4 41.8C135.5 40 127.3 38.4 119.2 38.5C122.6 39.1 125.9 39.8 129.3 40.6C136.5 42.4 144.1 44.6 149.5 49.9C151.4 51.7 153.2 54.7 150.7 56.9C148.4 58.8 144.9 58.5 142.1 58.1C128.3 55.9 117.9 45 105 40.4C102.9 39.7 100.2 39.3 99.2 37.7C92.1 40.8 86.3 45.9 81.8 52.3C81.8667 52.3 81.9 52.3 81.9 52.3C84.8 50.6 88.1 49.4 91.3 48.6C94.4 47.8 97.7 47.5 100.9 48.1C102.8 48.4 106.4 49.1 106.7 51.6C106.8 52.8 105.9 53.6 104.9 54C104.2 54.3 103.3 54.5 102.5 54.6C103.367 54.9333 104.2 55.3333 105 55.8C106.3 56.5 107.7 57.5 108.3 58.9C108.8 60.1 108.4 61.4 107.3 62.2C106.1 63.1 104.5 63 103.1 62.6C95.3 60.7 87.7 57.1 80.6 53.3C80.2 53.1 80.2 52.7 80.3 52.4V52.3C84.4 45.6 91 40.3 98.1 37.1C98.3667 36.9666 98.6333 36.8333 98.9 36.7C98.8 36.1 98.9 35.4 99.2 34.5C100 32.3 102.1 30.9 103.9 29.7C104.2 29.5 104.5 29.5 104.7 29.7C106.4 26.6 108.2 23.6 110.4 20.9C112.9 17.7 116 14.1 120.1 13C121.2 12.6 122.9 12.4 124.1 13C124.2 13 124.3 13.1 124.4 13.2C124.533 13.3333 124.667 13.4666 124.8 13.6C126 15.1 124.7 16.9 123.9 18.2C121.3 22.3 118.1 25.9 114.4 28.9C114.533 28.9 114.667 28.8667 114.8 28.8C118.7 25.1 123 22 127.2 18.6C130.4 15.9 134.1 12.8 136.4 9C136.2 8.73333 136.067 8.43331 136 8.09998C135.7 6.49998 136.9 5.50002 138.3 5.40002C138.5 5.40002 138.733 5.43333 139 5.5C140.9 5.9 141.1 8.49998 139.7 9.59998C139 10.2 138 10.1 137.2 9.70001C136.4 10.9 135.5 12.1 134.5 13.2C132.6 15.3 130.6 17.1 128.4 18.9C125 21.7 121.3 24.3 117.8 27.2C120.9 25.7 123.9 24.1 127.1 22.8C132.7 20.5 139.7 18.5 145.6 20.8C147.8 21.7 150.1 23.4 150.7 25.8C150.7 25.8667 150.7 25.9333 150.7 26C150.767 26.0667 150.767 26.1667 150.7 26.3C151.1 29.2 149.1 31.6 146.8 33C140.9 36.8 133.4 37.7 126.6 37.9C126.4 37.9 126.233 37.9 126.1 37.9C129.8 38.2 133.5 38.7 137.2 39.4C140.6 40 144 40.8 147.5 41.6C149.233 42 150.967 42.3667 152.7 42.7C153.433 42.8333 154.167 42.9666 154.9 43.1C155 42.5 155.3 42 155.9 41.6C157 40.7 159.1 40.8 159.2 42.5ZM82.8 52.8C87.9 55.4 93.2 57.7 98.7 59.6C100.1 60.1 106.8 63 107 59.9C107 58.5 105 57.3 104 56.7C102.6 55.8 101.2 55.3 99.6 55.1C99.1 55 99.1 54.1 99.6 54C101 53.7 102.4 53.5 103.7 53.2C104.4 53 105.6 52.8 105.6 51.9C105.7 51.2 105 50.7 104.6 50.3C102.6 49 99.6 48.8 97.2 48.8C94.5 48.8 91.8 49.4 89.2 50.2C87 50.9 85 51.9 82.8 52.8ZM149.5 26.1C142.1 27.6 134.7 29 127.3 30.6C121.7 31.9 116.1 33.4 110.6 34.7C116.1 33.7 121.9 33.6 127.5 33.2C131.6 32.9 135.7 32.4 139.7 31.5C143.1 30.7 147.4 29.9 149.6 26.9C149.6 26.6334 149.567 26.3666 149.5 26.1ZM117.5 17.4C115.767 19.2 114.1 21.0334 112.5 22.9C110.3 25.5 108.233 28.1667 106.3 30.9C106.967 30.3667 107.6 29.8333 108.2 29.3C110.133 27.7 112 26.0333 113.8 24.3C117.2 21 120.3 17.5 123.3 13.9C123.033 13.8334 122.7 13.7667 122.3 13.7C120.4 14.4 118.9 16 117.5 17.4ZM105.5 30.9C107.7 27.9 110 25 112.4 22.2C114.2 20.1 116 18 117.9 16.1C118.9 15.1 120 14.4 121.2 13.8C119.7 14.1 118.3 14.8 117.2 15.6C113.7 18 110.9 21.7 108.6 25.1C107.4 26.8 106.3 28.6 105.3 30.4C105.367 30.6 105.433 30.7667 105.5 30.9ZM106.3 33.1C106.433 32.9666 106.6 32.8667 106.8 32.8C109.4 31.3 111.9 29.6 114.2 27.6C117.3 25 120 22 122.2 18.7C122.9 17.6 124.6 15.4 123.9 14.3C121.4 18.3 117.9 21.8 114.5 25C112.5 26.7333 110.5 28.4667 108.5 30.2C107.7 30.8 106.8 31.6 106 32.3C106.133 32.5667 106.233 32.8333 106.3 33.1ZM106.7 34.2C120 29.8 132.6 22.7 146.9 22.7C145.3 21.7 143.3 21.2 141.4 21C135.1 20.6 129.1 22.9 123.5 25.6C118.4 28 113.5 30.5 108.5 33.1C107.9 33.4333 107.3 33.7666 106.7 34.1C106.7 34.1 106.7 34.1333 106.7 34.2ZM107 34.9C113.6 32.9 120.3 31.3 127.1 29.8C134.4 28.1 141.8 26.5 149.3 25.3C149.1 24.9667 148.9 24.6333 148.7 24.3C148.433 23.9667 148.133 23.6667 147.8 23.4C133.4 23.3 120.3 30 106.9 34.6C106.9 34.6666 106.933 34.7667 107 34.9ZM149.6 55.9C146.3 56.2 143.1 54.9 140.1 53.7C135.9 52.1 131.9 50.2 127.9 48.3C121.3 45.2 114.8 41.9 108 39.1C108 39.1666 108 39.2667 108 39.4C108 39.4667 108 39.5333 108 39.6C113.5 42 118.6 45.3 123.8 48.5C129.2 51.8 134.9 55.1 141.3 56.4C143.5 56.9 147.6 57.6 149.6 55.9ZM150.4 53.8C150.4 54 150.2 54.2 150 54C148.2 53.1 146.6 51.8 144.8 50.7C143.2 49.7667 141.567 48.9 139.9 48.1C136.4 46.3 132.7 44.9 128.9 43.6C122.7 41.6 116.4 40.2 110.1 38.9C115.7 41.3 121.2 43.9 126.7 46.5C130.7 48.4 134.6 50.3 138.7 52C142.3 53.6 146.2 55.7 150.3 55.1C150.5 54.6 150.5 54.2 150.4 53.8ZM110.4 38.2C116.9 39.4 123.5 41 129.8 43.1C133.4 44.3 137.1 45.8 140.5 47.5C142.3 48.3667 144.033 49.3 145.7 50.3C147.3 51.3 149 52.3 150.4 53.6C150.4 53.6 150.4 53.6333 150.4 53.7C150.2 52.5 149.1 51.5 148.3 50.7C147.1 49.5 145.6 48.5 144.1 47.5C138.1 43.9 130.8 42.3 123.9 40.8C119.4 39.8 114.9 39 110.4 38.2ZM126.6 36.7C133.1 36.5 140.3 35.7 146 32.1C147.4 31.3 148.7 30 149.2 28.6C147.4 30.4 144.6 31.1 142.2 31.8C138.1 32.8 134 33.4 129.8 33.8C122.4 34.4 115 34.5 107.7 36.1C114 36.6 120.3 36.9 126.6 36.7Z" fill="#9AA977"/>
<path fill-rule="evenodd" clip-rule="evenodd" d="M3.60001 41.6C4.10001 42 4.50001 42.5 4.60001 43.1C5.33334 42.9666 6.06665 42.8333 6.79999 42.7C8.53332 42.3667 10.2667 42 12 41.6C15.4 40.8 18.9 40 22.3 39.4C26 38.7 29.7 38.2 33.4 37.9C33.2 37.9 33.0333 37.9 32.9 37.9C26.1 37.7 18.5 36.8 12.7 33C10.4 31.6 8.40001 29.2 8.70001 26.3C8.70001 26.1667 8.73332 26.0667 8.79999 26C8.79999 25.9333 8.79999 25.8667 8.79999 25.8C9.39999 23.4 11.7 21.7 13.9 20.8C19.8 18.5 26.8 20.5 32.4 22.8C35.5 24.1 38.6 25.7 41.7 27.2C38.2 24.3 34.5 21.7 31 18.9C28.9 17.1 26.8 15.3 25 13.2C24 12.1 23.1 10.9 22.2 9.70001C21.4 10.1 20.5 10.2 19.7 9.59998C18.4 8.49998 18.6 5.9 20.4 5.5C20.6667 5.43333 20.9333 5.40002 21.2 5.40002C22.5 5.50002 23.8 6.49998 23.5 8.09998C23.4333 8.43331 23.3 8.73333 23.1 9C25.3 12.8 29 15.9 32.3 18.6C36.4 22 40.8 25.1 44.7 28.8C44.8333 28.8667 44.9333 28.9 45 28.9C41.4 25.9 38.2 22.3 35.6 18.2C34.8 16.9 33.5 15.1 34.7 13.6C34.7667 13.4666 34.9 13.3333 35.1 13.2C35.1 13.1 35.2 13 35.4 13C36.5 12.4 38.2 12.6 39.4 13C43.5 14.1 46.6 17.7 49.1 20.9C51.2 23.6 53.1 26.6 54.7 29.7C55 29.5 55.2 29.5 55.5 29.7C57.4 30.9 59.4 32.3 60.2 34.5C60.6 35.4 60.7 36.1 60.6 36.7C60.8667 36.8333 61.1333 36.9666 61.4 37.1C68.4 40.3 75.1 45.6 79.1 52.3C79.2 52.3 79.1 52.4 79.2 52.4C79.3 52.7 79.2 53.1 78.9 53.3C71.8 57.1 64.1 60.7 56.3 62.6C54.9 63 53.4 63.1 52.2 62.2C51.1 61.4 50.7 60.1 51.2 58.9C51.7 57.5 53.2 56.5 54.4 55.8C55.2 55.3333 56.0667 54.9333 57 54.6C56.1 54.5 55.3 54.3 54.5 54C53.5 53.6 52.7 52.8 52.8 51.6C53 49.1 56.7 48.4 58.6 48.1C61.8 47.5 65 47.8 68.1 48.6C71.3 49.4 74.7 50.6 77.5 52.3C77.5667 52.3 77.6 52.3 77.6 52.3C73.2 45.9 67.3 40.8 60.2 37.7C59.2 39.3 56.6 39.7 54.5 40.4C41.5 45 31.2 55.9 17.3 58.1C14.6 58.5 11.1 58.8 8.79999 56.9C6.29999 54.7 7.99999 51.7 9.89999 49.9C15.4 44.6 23 42.4 30.2 40.6C33.5 39.8 36.9 39.1 40.3 38.5C32.1 38.4 24 40 16.1 41.8C13.8333 42.3333 11.6 42.8333 9.39999 43.3C7.79999 43.7 6.1 44.1 4.5 44.4C4.2 45.2 3.60001 45.8 2.60001 45.8C1.30001 46 0.5 44.8 0.5 43.6C0.3 43.3 0.200012 43 0.200012 42.5C0.400012 40.8 2.50001 40.7 3.60001 41.6ZM70.3 50.2C67.7 49.4 65 48.8 62.2 48.8C59.9 48.8 56.9 49 54.9 50.3C54.4 50.7 53.8 51.2 53.8 51.9C53.9 52.8 55 53 55.7 53.2C57.1 53.5 58.5 53.7 59.8 54C60.4 54.1 60.4 55 59.8 55.1C58.3 55.3 56.8 55.8 55.5 56.7C54.5 57.3 52.4 58.5 52.5 59.9C52.6 63 59.3 60.1 60.8 59.6C66.2 57.7 71.5 55.4 76.6 52.8C74.5 51.9 72.4 50.9 70.3 50.2ZM9.89999 26.9C12.1 29.9 16.4 30.7 19.8 31.5C23.8 32.4 27.9 32.9 32 33.2C37.6 33.6 43.3 33.7 48.9 34.7C43.3 33.4 37.8 31.9 32.2 30.6C24.8 29 17.4 27.6 9.89999 26.1C9.89999 26.3666 9.89999 26.6334 9.89999 26.9ZM37.1 13.7C36.7 13.7667 36.4 13.8334 36.2 13.9C39.2 17.5 42.2 21 45.6 24.3C47.4667 26.0333 49.3333 27.7 51.2 29.3C51.8667 29.8333 52.5333 30.3667 53.2 30.9C51.2 28.1667 49.1333 25.5 47 22.9C45.3333 21.0334 43.6333 19.2 41.9 17.4C40.6 16 39 14.4 37.1 13.7ZM54.2 30.4C53.1 28.6 52 26.8 50.9 25.1C48.5 21.7 45.8 18 42.3 15.6C41.1 14.8 39.7 14.1 38.3 13.8C39.5 14.4 40.5 15.1 41.5 16.1C43.5 18 45.3 20.1 47 22.2C49.4667 25 51.8 27.9 54 30.9C54.0667 30.7667 54.1333 30.6 54.2 30.4ZM53.4 32.3C52.6 31.6 51.8 30.8 51 30.2C48.9333 28.4667 46.9333 26.7333 45 25C41.6 21.8 38.1 18.3 35.6 14.3C34.9 15.4 36.5 17.6 37.3 18.7C39.5 22 42.2 25 45.2 27.6C47.5 29.6 50 31.3 52.7 32.8C52.8333 32.8667 53 32.9666 53.2 33.1C53.2667 32.8333 53.3333 32.5667 53.4 32.3ZM52.8 34.1C52.1333 33.7666 51.5 33.4333 50.9 33.1C46 30.5 41 28 36 25.6C30.4 22.9 24.3 20.6 18 21C16.2 21.2 14.2 21.7 12.5 22.7C26.8 22.7 39.4 29.8 52.7 34.2C52.7667 34.1333 52.8 34.1 52.8 34.1ZM52.6 34.6C39.2 30 26 23.3 11.6 23.4C11.3333 23.6667 11.0667 23.9667 10.8 24.3C10.5333 24.6333 10.3333 24.9667 10.2 25.3C17.6 26.5 25 28.1 32.4 29.8C39.1 31.3 45.9 32.9 52.5 34.9C52.5 34.7667 52.5333 34.6666 52.6 34.6ZM18.1 56.4C24.5 55.1 30.2 51.8 35.7 48.5C40.8 45.3 45.9 42 51.5 39.6C51.5 39.5333 51.4667 39.4667 51.4 39.4C51.4 39.2667 51.4 39.1666 51.4 39.1C44.7 41.9 38.2 45.2 31.5 48.3C27.5 50.2 23.5 52.1 19.4 53.7C16.3 54.9 13.2 56.2 9.89999 55.9C11.8 57.6 16 56.9 18.1 56.4ZM9.20001 55.1C13.3 55.7 17.2 53.6 20.8 52C24.8 50.3 28.8 48.4 32.7 46.5C38.2 43.9 43.8 41.3 49.4 38.9C43 40.2 36.7 41.6 30.5 43.6C26.8 44.9 23.1 46.3 19.5 48.1C17.8333 48.9 16.2 49.7667 14.6 50.7C12.9 51.8 11.3 53.1 9.5 54C9.3 54.2 9 54 9 53.8C8.9 54.2 9.00001 54.6 9.20001 55.1ZM35.5 40.8C28.6 42.3 21.4 43.9 15.3 47.5C13.8 48.5 12.4 49.5 11.1 50.7C10.3 51.5 9.3 52.5 9 53.7C9 53.6333 9.03334 53.6 9.10001 53.6C10.5 52.3 12.2 51.3 13.8 50.3C15.4667 49.3 17.1667 48.3667 18.9 47.5C22.4 45.8 26 44.3 29.7 43.1C36 41 42.5 39.4 49.1 38.2C44.5 39 40 39.8 35.5 40.8ZM51.8 36.1C44.5 34.5 37.1 34.4 29.6 33.8C25.5 33.4 21.3 32.8 17.3 31.8C14.8 31.1 12 30.4 10.2 28.6C10.8 30 12 31.3 13.4 32.1C19.1 35.7 26.3 36.5 32.9 36.7C39.2 36.9 45.5 36.6 51.8 36.1Z" fill="#9AA977"/>
<path fill-rule="evenodd" clip-rule="evenodd" d="M99.8 16.8C97.8 21.7 94.1 26 91 30.3C87.4667 35.1667 83.9667 40 80.5 44.8C79.9 45.6 78.6 44.9 79.2 44.1C79.2 44.0333 79.2 44 79.2 44C75.3 40.5 71.8 36.5 69 32C66.3 27.9 64.1 23.4 62.6 18.7C61.3 14.9 60.4 10.4 62 6.50001C63.6 2.50001 68.1 1 72.1 2.3C75.8 3.4 78.2 6.50004 79.9 9.90004C81.2 6.00004 84.3 2.6 88.4 1.3C92.4 6.55651e-07 97 1.00003 99.4 4.70003C101.8 8.30002 101.4 13 99.8 16.8ZM98.6 6.40004C96.6 2.40004 92.1 1.50001 88.2 3.00001C84.3 4.50001 81.6 8.2 80.8 12.3C80.6 13 79.6 12.9 79.4 12.3C77.7 7.7 74.4 2.89999 68.9 3.09999C64.4 3.19999 62.3 7.2 62.4 11.3C62.4 15.4 63.9 19.5 65.5 23.2C68.8 30.8 73.7 37.6 79.6 43.4C82.8667 38.9334 86.1 34.4334 89.3 29.9C92.1 26.2 95.1 22.4 97.4 18.3C99.4 14.7 100.5 10.3 98.6 6.40004Z" fill="#9AA977"/>
<path d="M77 34.5C74.4 30.8 72.3 26.8 70.4 22.7C68.4 18.5 66.1 14 66.1 9.29999C66.1 8.79999 65.4 8.79999 65.4 9.29999C65 14.1 67.1 18.5 69 22.8C71 27.1 73 31.5 76.1 35.2C76.6 35.7 77.4 35 77 34.5Z" fill="#9AA977"/>
</svg>
