<svg width="262" height="110" viewBox="0 0 262 110" fill="none" xmlns="http://www.w3.org/2000/svg">
<path fill-rule="evenodd" clip-rule="evenodd" d="M261.6 37.9C257.5 40.4 252.6 41.5 247.8 41.3C245.1 41.3 242.5 40.8 239.9 40.2C237.5 39.6 234.7 39 232.5 37.7C232.367 37.6334 232.267 37.5 232.2 37.3C232.133 37.2333 232.067 37.2 232 37.2C231.933 37.1334 231.9 37.1 231.9 37.1C228.9 39.2 225.8 41.1 222.5 42.7C213.3 47.2 203.4 49.9 193.6 53.2C184.3 56.3 175.4 60.2 167.3 65.9C165.767 66.9667 164.3 68.0667 162.9 69.2C165.2 68.4 167.6 68.6 170 68.4C174.7 68.2 179.5 68.5 184.3 68.8C185.833 68.9333 187.4 69.0667 189 69.2C193.1 67.5 197.2 65.4 201.2 63.3C202.6 59.7 205.2 56.8 208.6 55C212.7 52.7 217.5 52.4 222.1 52.2C222.5 52.2 222.8 52.6 222.5 52.9C217.7 59.5 209.9 63.7 201.7 63.8C201.7 63.8 201.7 63.7 201.6 63.7C198.067 65.7667 194.467 67.6667 190.8 69.4C193.467 69.7333 196.1 70.1333 198.7 70.6C200.433 70.9333 202.167 71.3 203.9 71.7C204.767 71.9 205.6 72.1 206.4 72.3C206.9 72.4 208.4 73.1 208.8 72.9C209.4 72.7 209.9 72.5 210.5 72.3C211.5 71.9 212.5 71.5 213.5 71.1C215.633 70.2333 217.733 69.3333 219.8 68.4C223.4 66.7 226.9 65 230.4 63.2C230.4 63.1334 230.4 63.1 230.4 63.1C230.3 62.7 230.3 62.4 230.4 62.1C230.5 61.7 230.6 61.6 230.8 61.3C230.867 61.2333 230.9 61.2 230.9 61.2C231.033 61.0667 231.167 60.9667 231.3 60.9C231.433 60.7667 231.6 60.7 231.8 60.7C232.2 60.6 232.6 60.6 232.9 60.7C233.3 60.8 233.4 60.9 233.7 61.1C233.767 61.1667 233.8 61.2 233.8 61.2C233.867 61.3334 233.967 61.4667 234.1 61.6C234.3 61.8 234.4 62.2 234.4 62.6C234.4 63 234.3 63.3 234.1 63.6C234 63.9 233.7 64.2 233.4 64.4C233.1 64.6 232.7 64.7 232.3 64.7C232 64.6 231.8 64.6 231.5 64.4C231.4 64.4 231.2 64.2 231.1 64.1C227.5 66.1 223.8 67.9 220 69.5C218 70.3667 216 71.1667 214 71.9C212.867 72.3 211.767 72.7 210.7 73.1C210.5 73.1667 210.3 73.2333 210.1 73.3C215.233 74.7667 220.267 76.5667 225.2 78.7C225.267 78.6334 225.333 78.5667 225.4 78.5C225.5 78.4 225.7 78.4 225.9 78.3C225.9 78.3 225.933 78.3 226 78.3C226.133 78.2333 226.267 78.2 226.4 78.2C226.467 78.2 226.5 78.2 226.5 78.2C226.7 78.2 226.867 78.2333 227 78.3C227.2 78.3 227.3 78.4 227.4 78.4C227.467 78.4667 227.5 78.5 227.5 78.5C227.633 78.5667 227.767 78.6667 227.9 78.8C227.9 78.8 227.933 78.8333 228 78.9C228 78.9667 228.033 79 228.1 79C228.167 79.0667 228.233 79.1334 228.3 79.2C228.3 79.2667 228.3 79.3333 228.3 79.4C228.367 79.5333 228.433 79.6667 228.5 79.8C228.567 80 228.6 80.2 228.6 80.4C228.6 80.5333 228.6 80.6334 228.6 80.7C228.6 80.7667 228.567 80.8333 228.5 80.9C228.5 80.9667 228.5 81 228.5 81C228.4 81.3 228.3 81.6 228 81.8C227.933 81.8667 227.833 81.9667 227.7 82.1C227.633 82.1 227.6 82.1 227.6 82.1C227.467 82.1667 227.333 82.2333 227.2 82.3C227.067 82.3667 226.9 82.4 226.7 82.4C226.633 82.4 226.6 82.4 226.6 82.4C226.4 82.3333 226.233 82.3 226.1 82.3C226.1 82.3 226.067 82.3 226 82.3C225.9 82.3 225.9 82.3 225.8 82.3C225.667 82.3 225.533 82.2667 225.4 82.2C225.2 82.2 225.033 82.1333 224.9 82C224.767 81.8667 224.633 81.7333 224.5 81.6C224.5 81.4667 224.467 81.3667 224.4 81.3C224.4 81.2333 224.367 81.1667 224.3 81.1C224.3 81.0333 224.3 81 224.3 81C224.3 80.8667 224.3 80.7333 224.3 80.6C224.3 80.3333 224.3 80.1333 224.3 80C224.3 80 224.3 79.9667 224.3 79.9C223.033 79.3667 221.7 78.8333 220.3 78.3C221.7 82.1 222.967 85.9667 224.1 89.9C224.167 89.8333 224.267 89.8 224.4 89.8C224.4 89.8 224.433 89.8 224.5 89.8C224.633 89.8667 224.767 89.9 224.9 89.9C224.967 89.9 225 89.9 225 89.9C225.2 89.9667 225.367 90.0333 225.5 90.1C225.567 90.1667 225.667 90.2333 225.8 90.3C225.867 90.3667 225.933 90.4333 226 90.5C226.133 90.6333 226.233 90.7667 226.3 90.9C226.3 90.9667 226.333 91 226.4 91C226.467 91.1333 226.533 91.3 226.6 91.5C226.6 91.5667 226.6 91.6667 226.6 91.8C226.6 91.8667 226.6 91.9333 226.6 92C226.6 92.1333 226.6 92.2333 226.6 92.3C226.6 92.4333 226.567 92.5667 226.5 92.7C226.5 92.8334 226.433 92.9667 226.3 93.1C226.3 93.1667 226.3 93.2 226.3 93.2C226.167 93.4 226.067 93.5333 226 93.6C225.867 93.7333 225.733 93.8333 225.6 93.9C225.533 93.9667 225.467 94 225.4 94C225.267 94.0667 225.133 94.1334 225 94.2C224.8 94.2667 224.633 94.3 224.5 94.3C224.433 94.3 224.367 94.3 224.3 94.3C224.167 94.3 224.033 94.2667 223.9 94.2C223.833 94.2 223.767 94.2 223.7 94.2C223.567 94.1334 223.433 94.0667 223.3 94C223.167 93.9333 223.067 93.8667 223 93.8C222.933 93.7333 222.867 93.7 222.8 93.7C222.7 93.6 222.7 93.5 222.6 93.3C222.467 93.1667 222.367 93 222.3 92.8C222.3 92.7333 222.3 92.7 222.3 92.7C222.3 92.6 222.2 92.4 222.2 92.3C222.2 92.2333 222.233 92.1667 222.3 92.1C222.3 91.9 222.3 91.7667 222.3 91.7C222.3 91.6334 222.3 91.5667 222.3 91.5C222.3 91.4333 222.333 91.3667 222.4 91.3C222.4 91.2 222.5 91 222.6 90.9C222.667 90.7 222.767 90.5667 222.9 90.5C222.967 90.4333 223.033 90.3667 223.1 90.3C221.6 86.3 220.4 82.1 219.4 77.9C217 76.9667 214.567 76.1333 212.1 75.4C204 72.8 195.6 71.2 187.1 70.4C182.967 70 178.767 69.8 174.5 69.8C172.433 69.8667 170.333 69.9333 168.2 70C166.7 70.1 165.2 70.3 163.7 70.3C163.567 70.3667 163.433 70.4 163.3 70.4C161.9 70.8 160.6 71.4 159.4 72.1C153.7 77.3 148.6 83.1 144.3 89.5C146.1 87.8 148 86.4 150.2 85.3C153.5 83.6 157.1 82.4 160.7 81.7C164.6 81 168.6 80.7 172.5 80.7C176.5 80.7 180.5 81.2 184.2 82.6C184.7 82.8 184.9 83.4 184.4 83.7C178.2 87.6 171.4 90.3 164.2 91.5C160.6 92.1 157 92.3 153.4 92.2C151.6 92.1 149.9 91.9 148.2 91.8C146.2 91.8 144.5 92 142.6 92.5C142.5 92.6 142.4 92.5 142.3 92.5C139.3 97.5 136.7 102.7 134.6 108.2C134.6 108.533 134.567 108.867 134.5 109.2C134.5 109.4 134.3 109.4 134.2 109.4C134.133 109.467 134.1 109.533 134.1 109.6C133.9 110.2 132.9 110 133.1 109.3C133.433 108.433 133.733 107.567 134 106.7C134.4 100.3 135.8 94 137.7 87.9C141.3 76.4 147.5 66.2 154.4 56.3C154.267 56.2333 154.233 56.1 154.3 55.9C154.3 55.8333 154.3 55.7667 154.3 55.7C148.8 48.2 147.9 38 151.6 29.5C151.6 29.3667 151.6 29.2333 151.6 29.1C151.7 28.9 151.8 28.8 151.9 28.8C152.033 28.5333 152.167 28.2667 152.3 28C152.5 27.7 153.1 27.7 153.2 28C157.1 35.9 158.3 45.5 155.9 54.1C158 51 160.1 48 162.2 45C162.1 44.7 162.3 44.4 162.6 44.2C162.533 44.2 162.5 44.1667 162.5 44.1C162.2 35.6 166.5 27.9 173.4 23C173.6 22.8 174.1 23 174.2 23.2C174.333 23.4667 174.433 23.7 174.5 23.9C174.7 23.9 175 24.1 174.9 24.3C174.9 24.5 174.9 24.6667 174.9 24.8C176.4 28.8 176 33.4 174.1 37.2C173 39.2 171.6 40.9 169.8 42.3C167.8 43.8 165.6 44.7 163.3 45.6C158.9 52.1 154.2 58.4 150 65C154.7 60.1 161.4 57 167.9 56.2C168.4 56.1 168.7 56.7 168.4 57C166 60.7 162.7 63.9 159 66.2C157.067 67.4 155.067 68.3667 153 69.1C151.1 69.8 148.7 70.6 146.7 70.5C146.367 71.0333 146.033 71.5667 145.7 72.1C142.6 77.8 140.1 83.7 138.3 89.9C136.9 94.3 136 98.8 135.3 103.4C137 99.3 139 95.5 141.2 91.7C141.2 91.5 141.3 91.3 141.5 91.3C143.4 88.2 145.4 85.2 147.7 82.4C153.3 75.2 160.1 68.9 167.7 63.8C175 58.8 183 55.3 191.3 52.4C188.1 41.4 192.7 29.3 202.3 23C202.7 22.8 203.1 23.1 203.1 23.5C203.4 33.9 199 43.3 193.2 51.8C193.467 51.6667 193.733 51.5667 194 51.5C197.7 50.2 201.5 49.1 205.2 47.9C205.2 47.7667 205.233 47.6667 205.3 47.6C207.9 44.9 210.5 42.4 212.7 39.4C214.8 36.7 216.5 33.8 218.1 30.8C218.033 30.8 218 30.7667 218 30.7C217.7 28.8 217.6 26.9 217.2 24.9C216.933 23.1 216.533 21.2667 216 19.4C215 16.3 213.8 13.2 212.2 10.3C212.133 10.3667 212.067 10.4 212 10.4C211.8 10.4667 211.6 10.5 211.4 10.5C211.2 10.5 211 10.4667 210.8 10.4C210.5 10.3 210.1 10.2 209.8 9.9C209.4 9.5 209.1 8.9 209.2 8.4C209.2 8.3 209.2 8.20001 209.2 8.10001C209.2 8.03335 209.2 7.96667 209.2 7.9C209.2 7.76667 209.2 7.66668 209.2 7.60001C209.2 7.46668 209.233 7.36666 209.3 7.3C209.5 6.5 210.2 5.90001 211 5.60001C211.3 5.50001 211.8 5.50001 212.1 5.60001C212.3 5.66668 212.5 5.73333 212.7 5.8C212.833 5.86666 212.967 5.96668 213.1 6.10001C213.3 6.30001 213.467 6.50002 213.6 6.70002C213.8 7.10002 213.9 7.4 213.9 7.9C213.967 7.96667 213.967 8.03335 213.9 8.10001C213.9 8.30001 213.9 8.46668 213.9 8.60001C213.7 9.00001 213.6 9.30001 213.3 9.60001C214.9 12.5 216.3 15.7 217.2 18.9C218.1 22.2 218.9 25.9 218.8 29.4C222.6 21.7 225.2 13.3 227.5 5.00001C226.9 4.90001 226.3 4.60001 226 4.00001C225.7 3.50001 225.6 2.8 225.8 2.3C225.9 2.1 225.9 1.9 226 1.8C226.1 1.7 226.1 1.70001 226.2 1.50001C226.267 1.43334 226.3 1.4 226.3 1.4C226.433 1.33334 226.533 1.23335 226.6 1.10001C226.8 0.900015 227 0.800015 227.2 0.600015C227.7 0.200015 228.5 0.199997 229 0.299997C229.4 0.499997 229.6 0.600003 229.9 0.900003C230.1 1.03334 230.267 1.2 230.4 1.4C230.6 1.8 230.7 2.3 230.7 2.8C230.6 3.2 230.6 3.4 230.4 3.8C230.267 4 230.133 4.16666 230 4.3C229.7 4.7 229.2 4.90001 228.8 5.00001C228.733 5.06668 228.667 5.10001 228.6 5.10001C227.8 8.30001 226.9 11.6 226 14.8C224 21.2 221.6 27.5 218.4 33.5C216.8 36.3667 215 39.1 213 41.7C211.7 43.4 210.2 45.2 208.6 46.7C213.7 45 218.7 43 223.5 40.5C228 38.2 232 35.4 235.7 32.2C235.6 30.9 237.2 28 237.5 27.5C238.8 24.9 240.3 22.2 242.3 20C244.7 17.5 247.9 15.9 251.2 14.7C252 14.3667 252.833 14.0667 253.7 13.8C254.3 13.6 255.3 13 256 13C257.7 13.1 256.4 15.6 256.2 16.4C255.733 17.6 255.167 18.7667 254.5 19.9C253.2 22.2 251.5 24.2 249.7 26.1C246.3 29.4 241.8 32.3 237.1 33.2C236.967 33.2667 236.867 33.2667 236.8 33.2C236.4 33.6 236 33.9 235.6 34.2C238.6 33 241.9 32.6 245 32.7C250.7 32.9 256.1 34.8 261.5 36.6C262 36.8 262.2 37.5 261.6 37.9ZM254.8 16C252.5 19 250 22 247.4 24.7C245.2 27 242.9 29.2 240 30.5C239.8 30.6333 239.6 30.7667 239.4 30.9C239.333 30.9667 239.233 31.0333 239.1 31.1C240.5 30.6 241.9 30 243.2 29.2C245.2 28.0667 247 26.6667 248.6 25C251.3 22.4 253.3 19.4 254.8 16ZM241.3 28.6C242.833 27.4667 244.333 26.2667 245.8 25C246.667 24.2 247.5 23.3667 248.3 22.5C249.3 21.4 250.3 20.3 251.3 19.1C249.8 20.4 248.2 21.6 246.8 22.9C244.1 25.1 241.6 27.5 239.3 30C239.967 29.5333 240.633 29.0667 241.3 28.6ZM245.5 20.4C243.9 21.9 242.4 23.5 241.1 25.3C240.967 25.4333 240.867 25.5667 240.8 25.7C240.667 25.7667 240.6 25.8667 240.6 26C240.4 26.3333 240.167 26.6667 239.9 27C239.5 27.8 239.1 28.6 238.7 29.4C240.9 26.8 243.3 24.5 245.9 22.3C248.7 19.9 251.4 17.5 254 15C253 15.4667 252.067 15.9333 251.2 16.4C249.133 17.5333 247.233 18.8667 245.5 20.4ZM236.7 31.3C236.833 31.1667 237 31 237.2 30.8C237.667 29.6 238.233 28.4667 238.9 27.4C240.8 23.3 244.1 19.8 248 17.2C246.6 17.9 245.3 18.7 244.2 19.7C242.3 21.3 240.9 23.4 239.6 25.6C239 26.7 238.4 27.8 237.8 28.9C237.533 29.5 237.267 30.0667 237 30.6C236.867 30.8 236.767 31.0333 236.7 31.3ZM165.7 42.9C166.9 42.3 167.9 41.7 168.9 40.9C170.4 39.7 171.6 38.2 172.6 36.5C173.9 34 174.4 31.4 174.2 28.7C172.8 34.2 170 39.2 165.7 42.9ZM165.3 42.5C165.167 42.7 165 42.9334 164.8 43.2C169.6 38.8 173 32.9 173.9 26.5C173.833 26.3667 173.8 26.2333 173.8 26.1C171.5 31.9 168.6 37.3 165.3 42.5ZM163.2 43.5C163.4 43.1667 163.6 42.8333 163.8 42.5C165.1 36.4 168.2 30.5 172.1 25.8C172.3 25.6 172.6 25.8 172.4 26C170.5 28.6 168.8 31.4 167.4 34.3C166.5 36.3 165.8 38.3 165.1 40.3C168.2 35.4 170.9 30.2 173 24.8C166.9 28.9 163.3 36.2 163.2 43.5ZM153.9 53.8C152 47.3 151.1 40.4 151.3 33.6C149.6 40.3 150.6 47.6 153.9 53.8ZM154.2 52.9C154.2 49.3 154.2 45.8 154 42.2C153.867 40.1334 153.667 38.0333 153.4 35.9C153.267 34.6333 153.1 33.4 152.9 32.2C152.9 31.6 152.8 30.8 152.5 30.2C152.433 30.4 152.367 30.6 152.3 30.8C152.1 34.6 152 38.3 152.4 42C152.7 45.7 153.4 49.3 154.2 52.9ZM154.7 40.4C155 44.1 155.3 47.8 155.2 51.5C155.8 48.4 156.1 45.3 155.9 42.2C155.6 38.7 154.9 35.3 153.7 32C153.7 32.6 153.8 33.1 153.8 33.6C154.133 35.8667 154.433 38.1333 154.7 40.4ZM166.4 57.8C164 60.6 160.7 62.8 157.6 64.8C155.7 66 153.7 67 151.7 68C151.967 67.9333 152.2 67.8667 152.4 67.8C154.4 67.1333 156.333 66.2667 158.2 65.2C161.4 63.3 164.1 60.7 166.4 57.8ZM150 66.6C150.4 66.3333 150.767 66.0334 151.1 65.7C152.633 64.6334 154.2 63.6334 155.8 62.7C158.5 61.1 161.3 59.8 164.2 58.4C164.4 58.2667 164.6 58.1 164.8 57.9C159 59.3 154.1 62.4 150 66.6ZM149.4 68.4C152.1 67.2 154.6 65.7 157 64.1C159 62.9 160.7 61.4 162.4 59.9C160.4 61 158.4 62.1 156.5 63.3C154.9 64.3 153.3 65.2 151.8 66.3C151 67 150.2 67.7 149.4 68.4ZM180.9 84.3C174.7 86.2 168.4 87.9 161.9 89C158.1 89.7 154.1 90.1 150.2 90.5C150.867 90.5667 151.533 90.6334 152.2 90.7C155.9 90.9 159.6 90.8 163.2 90.2C169.4 89.3 175.4 87.3 180.9 84.3ZM146.9 88.2C157.8 84.3 169.7 82.7 181.3 83C178.4 82.3 175.5 81.9 172.5 81.9C168.7 81.9 164.8 82.1 161 82.8C156.2 83.6 151.1 85.4 146.9 88.2ZM143.6 90.8C143.8 90.7333 143.967 90.7 144.1 90.7C144.567 90.5667 145 90.4667 145.4 90.4C150.8 89.5 156.3 89.2 161.7 88.3C168.6 87.1 175.3 85.2 182 83.5C182.067 83.5 182.133 83.5333 182.2 83.6C182.2 83.5333 182.233 83.5 182.3 83.5C176.2 83.5 170.2 84 164.3 84.9C158.1 85.8 152.1 87.4 146.1 89.1C146 89.2 145.9 89.1 145.8 89C145 89.5333 144.267 90.1333 143.6 90.8ZM204.3 61.5C205.1 61.0333 205.9 60.5333 206.7 60C208.3 59 209.7 57.9 211.3 56.9C213.4 55.6 215.7 54.7 218.1 53.8C217.3 53.9333 216.5 54.1 215.7 54.3C213.9 54.7 212.1 55.3 210.4 56.2C207.7 57.6 205.4 59.5 203.5 61.9C203.767 61.7667 204.033 61.6333 204.3 61.5ZM217.6 56.7C216.133 57.5667 214.6 58.3667 213 59.1C211.4 59.7667 209.8 60.4333 208.2 61.1C207.267 61.5 206.333 61.9 205.4 62.3C209.9 61.5 214.2 59.6 217.6 56.7ZM218.7 54.7C216.2 55.5 213.7 56.5 211.4 57.9C210.467 58.5 209.567 59.0667 208.7 59.6C209.9 59.1333 211.1 58.6667 212.3 58.2C214.5 57.2 216.7 56 218.7 54.7ZM202 62.7C202.067 62.6334 202.133 62.5667 202.2 62.5C202.333 62.4333 202.467 62.3667 202.6 62.3C204.4 59.5 207 57.2 209.9 55.6C211.2 55 212.5 54.4 213.9 54C212.2 54.4 210.7 54.9 209.2 55.7C206.1 57.3 203.8 59.8 202 62.7ZM201.9 27.5C201.1 31.2 199.6 34.8 198.3 38.4C197.233 41.1333 196.2 43.8667 195.2 46.6C198.6 40.7 201.3 34.3 201.9 27.5ZM191.6 50.1C192.2 45.9 193.3 41.7 194.7 37.7C196.3 33.4 198.4 29.4 200.7 25.5C193.5 31.5 190.2 40.9 191.6 50.1ZM192.5 50.8C194.033 46.5333 195.6 42.3 197.2 38.1C198.7 34.2 200.1 30.4 201.1 26.4C198.8 30 197 33.9 195.5 37.9C193.9 42.2 192.7 46.8 192 51.4C192.2 51.2 192.367 51 192.5 50.8ZM234.1 36C238.3 35.4 242.5 34.8 246.8 34.7C248.333 34.7 249.867 34.7667 251.4 34.9C249.5 34.4 247.6 34.1 245.6 34C243 33.8 240.4 34 237.9 34.6C236.6 35 235.3 35.5 234.1 36ZM236.1 36.3C236.9 36.3667 237.7 36.4333 238.5 36.5C240.9 36.7 243.3 36.8667 245.7 37C249.7 37.1 253.6 37.1 257.5 37.1C257.233 36.9667 256.967 36.8667 256.7 36.8C255.633 36.4667 254.567 36.2333 253.5 36.1C251.1 35.7 248.8 35.5 246.4 35.6C243 35.6 239.5 35.9 236.1 36.3ZM258.9 37.7C254.4 38.1 250 38.3 245.5 38.1C243.033 38.0333 240.533 37.9 238 37.7C237.4 37.6334 236.8 37.5667 236.2 37.5C237.6 37.9 238.9 38.4 240.3 38.8C242.7 39.4 245.1 39.8 247.6 39.9C251.4 40 255.3 39.4 258.9 37.7Z" fill="#F4F2EC"/>
<path fill-rule="evenodd" clip-rule="evenodd" d="M0.600011 36.6C5.90001 34.8 11.4 32.9 17.1 32.7C20.1 32.6 23.5 33 26.4 34.2C26 33.9 25.6 33.6 25.3 33.2C25.1667 33.2667 25.0667 33.2667 25 33.2C20.3 32.3 15.8 29.4 12.4 26.1C10.5 24.2 8.90001 22.2 7.60001 19.9C6.93334 18.7667 6.36667 17.6 5.9 16.4C5.6 15.6 4.4 13.1 6 13C6.7 13 7.7 13.6 8.4 13.8C9.26667 14.0667 10.1 14.3667 10.9 14.7C14.2 15.9 17.4 17.5 19.8 20C21.8 22.2 23.2 24.9 24.6 27.5C24.9 28 26.5 30.9 26.3 32.2C30 35.4 34.1 38.2 38.5 40.5C43.3 43 48.4 45 53.5 46.7C51.9 45.2 50.4 43.4 49 41.7C47 39.1 45.2333 36.3667 43.7 33.5C40.4 27.5 38 21.2 36.1 14.8C35.1 11.6 34.3 8.30001 33.5 5.10001C33.4333 5.10001 33.3667 5.06668 33.3 5.00001C32.8 4.90001 32.4 4.7 32.1 4.3C31.9 4.16666 31.7667 4 31.7 3.8C31.5 3.4 31.4 3.2 31.4 2.8C31.3 2.3 31.5 1.8 31.7 1.4C31.8334 1.2 31.9667 1.03334 32.1 0.900003C32.4 0.600003 32.7 0.499997 33 0.299997C33.6 0.199997 34.3 0.200015 34.8 0.600015C35.1 0.800015 35.2 0.900015 35.4 1.10001C35.5333 1.23335 35.6333 1.33334 35.7 1.4C35.7667 1.4 35.8 1.43334 35.8 1.50001C36 1.70001 36 1.7 36.1 1.8C36.1 1.9 36.2 2.1 36.2 2.3C36.4 2.8 36.3 3.50001 36.1 4.00001C35.7 4.60001 35.2 4.90001 34.5 5.00001C36.8 13.3 39.4 21.7 43.3 29.4C43.1 25.9 43.9 22.2 44.9 18.9C45.8 15.7 47.1 12.5 48.7 9.60001C48.5 9.30001 48.3 9.00001 48.2 8.60001C48.1333 8.46668 48.1 8.30001 48.1 8.10001C48.1 8.03335 48.1 7.96667 48.1 7.9C48.2 7.4 48.2 7.10002 48.4 6.70002C48.5333 6.50002 48.7 6.30001 48.9 6.10001C49.0333 5.96668 49.2 5.86666 49.4 5.8C49.5333 5.73333 49.7 5.66668 49.9 5.60001C50.3 5.50001 50.7 5.50001 51.1 5.60001C51.9 5.90001 52.5 6.5 52.8 7.3C52.8 7.36666 52.8 7.46668 52.8 7.60001C52.8667 7.66668 52.9 7.76667 52.9 7.9C52.9 7.96667 52.8667 8.03335 52.8 8.10001C52.8 8.20001 52.9 8.3 52.9 8.4C52.9 8.9 52.6 9.5 52.2 9.9C51.9 10.2 51.6 10.3 51.2 10.4C51 10.4667 50.8333 10.5 50.7 10.5C50.5 10.5 50.3 10.4667 50.1 10.4C50.0333 10.4 49.9667 10.3667 49.9 10.3C48.3 13.2 47 16.3 46.1 19.4C45.5667 21.2667 45.1333 23.1 44.8 24.9C44.5 26.9 44.4 28.8 44 30.7C44 30.7667 44 30.8 44 30.8C45.5 33.8 47.3 36.7 49.3 39.4C51.5 42.4 54.2 44.9 56.7 47.6C56.7667 47.6667 56.8333 47.7667 56.9 47.9C60.6 49.1 64.3 50.2 68 51.5C68.2667 51.5667 68.5333 51.6667 68.8 51.8C63.1 43.3 58.6 33.9 58.9 23.5C59 23.1 59.4 22.8 59.7 23C69.3 29.3 74 41.4 70.8 52.4C79.1 55.3 87.1 58.8 94.4 63.8C101.9 68.9 108.7 75.2 114.4 82.4C116.6 85.2 118.7 88.2 120.6 91.3C120.8 91.3 120.8 91.5 120.8 91.7C123.1 95.5 125.1 99.3 126.7 103.4C126 98.8 125.1 94.3 123.8 89.9C121.9 83.7 119.4 77.8 116.3 72.1C116.033 71.5667 115.733 71.0333 115.4 70.5C113.3 70.6 111 69.8 109.1 69.1C106.967 68.3667 104.967 67.4 103.1 66.2C99.3 63.9 96.1 60.7 93.6 57C93.4 56.7 93.7 56.1 94.1 56.2C100.7 57 107.3 60.1 112 65C107.8 58.4 103.1 52.1 98.8 45.6C96.5 44.7 94.2 43.8 92.3 42.3C90.5 40.9 89 39.2 88 37.2C86 33.4 85.7 28.8 87.2 24.8C87.1334 24.6667 87.1 24.5 87.1 24.3C87.1 24.1 87.3 23.9 87.5 23.9C87.6333 23.7 87.7667 23.4667 87.9 23.2C88 23 88.4 22.8 88.7 23C95.5 27.9 99.9 35.6 99.5 44.1C99.5 44.1667 99.5 44.2 99.5 44.2C99.8 44.4 99.9 44.7 99.9 45C101.9 48 104 51 106.1 54.1C103.8 45.5 105 35.9 108.8 28C109 27.7 109.6 27.7 109.8 28C109.933 28.2667 110.033 28.5333 110.1 28.8C110.3 28.8 110.4 28.9 110.4 29.1C110.4 29.2333 110.4 29.3667 110.4 29.5C114.1 38 113.3 48.2 107.8 55.7C107.8 55.7667 107.8 55.8333 107.8 55.9C107.867 56.1 107.833 56.2333 107.7 56.3C114.5 66.2 120.8 76.4 124.4 87.9C126.3 94 127.6 100.3 128 106.7C128.333 107.567 128.633 108.433 128.9 109.3C129.1 110 128.2 110.2 128 109.6C127.933 109.533 127.9 109.467 127.9 109.4C127.7 109.4 127.6 109.4 127.5 109.2C127.5 108.867 127.467 108.533 127.4 108.2C125.4 102.7 122.8 97.5 119.7 92.5C119.7 92.5 119.6 92.6 119.5 92.5C117.6 92 115.8 91.8 113.9 91.8C112.1 91.9 110.4 92.1 108.7 92.2C105.1 92.3 101.4 92.1 97.8 91.5C90.7 90.3 83.8 87.6 77.7 83.7C77.2 83.4 77.3 82.8 77.8 82.6C81.6 81.2 85.6 80.7 89.6 80.7C93.5 80.7 97.5 81 101.3 81.7C105 82.4 108.5 83.6 111.8 85.3C114.1 86.4 116 87.8 117.8 89.5C113.5 83.1 108.4 77.3 102.6 72.1C101.4 71.4 100.1 70.8 98.8 70.4C98.6667 70.4 98.5 70.3667 98.3 70.3C96.8 70.3 95.3 70.1 93.8 70C91.7333 69.9333 89.6333 69.8667 87.5 69.8C83.3 69.8 79.1 70 74.9 70.4C66.5 71.2 58.1 72.8 50 75.4C47.5333 76.1333 45.1 76.9667 42.7 77.9C41.7 82.1 40.4 86.2 39 90.3C39.0667 90.3667 39.1 90.4333 39.1 90.5C39.2333 90.5667 39.3667 90.7 39.5 90.9C39.6 91 39.6 91.2 39.7 91.3C39.7 91.3667 39.7 91.4333 39.7 91.5C39.7 91.5667 39.7333 91.6334 39.8 91.7C39.8 91.7667 39.8 91.9 39.8 92.1C39.8 92.1667 39.8 92.2333 39.8 92.3C39.8 92.4 39.8 92.6 39.8 92.7C39.7333 92.7 39.7 92.7333 39.7 92.8C39.6333 93 39.5667 93.1667 39.5 93.3C39.4 93.5 39.3 93.6 39.2 93.7C39.1333 93.7 39.0667 93.7333 39 93.8C38.9333 93.8667 38.8667 93.9333 38.8 94C38.6667 94.0667 38.5 94.1334 38.3 94.2C38.3 94.2 38.2667 94.2 38.2 94.2C38.0667 94.2667 37.9 94.3 37.7 94.3C37.6333 94.3 37.6 94.3 37.6 94.3C37.4 94.3 37.2333 94.2667 37.1 94.2C36.9 94.1334 36.7333 94.0667 36.6 94C36.5333 94 36.5 93.9667 36.5 93.9C36.3667 93.8333 36.2333 93.7333 36.1 93.6C35.9667 93.5333 35.8667 93.4 35.8 93.2C35.7333 93.2 35.7 93.1667 35.7 93.1C35.6333 92.9667 35.5667 92.8334 35.5 92.7C35.5 92.5667 35.5 92.4333 35.5 92.3C35.4333 92.2333 35.4 92.1333 35.4 92C35.4 91.9333 35.4333 91.8667 35.5 91.8C35.5 91.6667 35.5 91.5667 35.5 91.5C35.5667 91.3 35.6333 91.1333 35.7 91C35.7 91 35.7 90.9667 35.7 90.9C35.8333 90.7667 35.9667 90.6333 36.1 90.5C36.1667 90.4333 36.2333 90.3667 36.3 90.3C36.3667 90.2333 36.4667 90.1667 36.6 90.1C36.7333 90.0333 36.8667 89.9667 37 89.9C37.0667 89.9 37.1 89.9 37.1 89.9C37.3 89.9 37.4667 89.8667 37.6 89.8C37.6 89.8 37.6333 89.8 37.7 89.8C37.7667 89.8 37.8333 89.8333 37.9 89.9C39.0333 85.9667 40.3 82.1 41.7 78.3C40.3667 78.8333 39.0333 79.3667 37.7 79.9C37.7 79.9667 37.7 80 37.7 80C37.7667 80.1333 37.8 80.3333 37.8 80.6C37.8 80.7333 37.7667 80.8667 37.7 81C37.7 81 37.7 81.0333 37.7 81.1C37.7 81.1667 37.6667 81.2333 37.6 81.3C37.6 81.3667 37.5667 81.4667 37.5 81.6C37.4333 81.7333 37.3 81.8667 37.1 82C36.9667 82.1333 36.8 82.2 36.6 82.2C36.4667 82.2667 36.3333 82.3 36.2 82.3C36.2 82.3 36.1 82.3 36 82.3C36 82.3 35.9667 82.3 35.9 82.3C35.7667 82.3 35.6333 82.3333 35.5 82.4C35.4333 82.4 35.4 82.4 35.4 82.4C35.2 82.4 35 82.3667 34.8 82.3C34.6667 82.2333 34.5667 82.1667 34.5 82.1C34.4333 82.1 34.4 82.1 34.4 82.1C34.2667 81.9667 34.1333 81.8667 34 81.8C33.8 81.6 33.7 81.3 33.6 81C33.5333 81 33.5 80.9667 33.5 80.9C33.5 80.8333 33.5 80.7667 33.5 80.7C33.5 80.6334 33.5 80.5333 33.5 80.4C33.5 80.2 33.5 80 33.5 79.8C33.5667 79.6667 33.6333 79.5333 33.7 79.4C33.7667 79.3333 33.8 79.2667 33.8 79.2C33.8667 79.1334 33.9 79.0667 33.9 79C33.9667 79 34.0333 78.9667 34.1 78.9C34.1 78.8333 34.1333 78.8 34.2 78.8C34.2667 78.6667 34.3667 78.5667 34.5 78.5C34.5 78.5 34.5333 78.5 34.6 78.5C34.6 78.5 34.6 78.4667 34.6 78.4C34.7 78.4 34.9 78.3 35 78.3C35.2 78.2333 35.3667 78.2 35.5 78.2C35.5667 78.2 35.6 78.2 35.6 78.2C35.7333 78.2 35.9 78.2333 36.1 78.3C36.1 78.3 36.1333 78.3 36.2 78.3C36.3 78.4 36.5 78.4 36.7 78.5C36.7667 78.5667 36.8333 78.6334 36.9 78.7C41.8333 76.5667 46.8667 74.7667 52 73.3C51.8 73.2333 51.6 73.1667 51.4 73.1C50.2667 72.7 49.1667 72.3 48.1 71.9C46.1 71.1667 44.1 70.3667 42.1 69.5C38.3 67.9 34.5667 66.1 30.9 64.1C30.8 64.2 30.7 64.4 30.5 64.4C30.2 64.6 30.1 64.6 29.7 64.7C29.4 64.7 29 64.6 28.7 64.4C28.4 64.2 28.1 63.9 28 63.6C27.8 63.3 27.7 63 27.7 62.6C27.7 62.2 27.8 61.8 28 61.6C28.0667 61.4667 28.1334 61.3334 28.2 61.2C28.2667 61.2 28.3 61.1667 28.3 61.1C28.6 60.9 28.7 60.8 29.1 60.7C29.5 60.6 29.9 60.6 30.2 60.7C30.4 60.7 30.6 60.7667 30.8 60.9C30.9333 60.9667 31.0333 61.0667 31.1 61.2C31.1667 61.2 31.2 61.2333 31.2 61.3C31.4 61.6 31.6 61.7 31.7 62.1C31.8 62.4 31.8 62.7 31.7 63.1C31.7 63.1 31.6667 63.1334 31.6 63.2C35.1 65 38.7 66.7 42.2 68.4C44.3333 69.3333 46.4333 70.2333 48.5 71.1C49.5667 71.5 50.6 71.9 51.6 72.3C52.1 72.5 52.7 72.7 53.2 72.9C53.6 73.1 55.2 72.4 55.6 72.3C56.4667 72.1 57.3333 71.9 58.2 71.7C59.8667 71.3 61.5667 70.9333 63.3 70.6C65.9667 70.1333 68.6333 69.7333 71.3 69.4C67.5667 67.6667 63.9333 65.7667 60.4 63.7C60.4 63.7 60.4 63.8 60.3 63.8C52.1 63.7 44.3 59.5 39.5 52.9C39.3 52.6 39.6 52.2 39.9 52.2C44.6 52.4 49.4 52.7 53.5 55C56.8 56.8 59.5 59.7 60.9 63.3C64.8 65.4 68.9 67.5 73.1 69.2C74.6333 69.0667 76.1667 68.9333 77.7 68.8C82.5 68.5 87.3 68.2 92.1 68.4C94.5 68.6 96.9 68.4 99.2 69.2C97.7334 68.0667 96.2667 66.9667 94.8 65.9C86.7 60.2 77.7 56.3 68.4 53.2C58.7 49.9 48.7 47.2 39.5 42.7C36.2 41.1 33.1 39.2 30.2 37.1C30.1334 37.1 30.1 37.1334 30.1 37.2C30.0333 37.2 29.9333 37.2333 29.8 37.3C29.8 37.5 29.7 37.6334 29.5 37.7C27.3 39 24.6 39.6 22.1 40.2C19.6 40.8 16.9 41.3 14.3 41.3C9.39999 41.5 4.6 40.4 0.399999 37.9C-0.100001 37.5 1.0848e-05 36.8 0.600011 36.6ZM13.4 25C15.0667 26.6667 16.9 28.0667 18.9 29.2C20.2 30 21.5 30.6 22.9 31.1C22.8333 31.0333 22.7333 30.9667 22.6 30.9C22.4 30.7667 22.2 30.6333 22 30.5C19.2 29.2 16.8 27 14.6 24.7C12 22 9.59999 19 7.29999 16C8.79999 19.4 10.8 22.4 13.4 25ZM22.8 30C20.4 27.5 17.9 25.1 15.3 22.9C13.8 21.6 12.3 20.4 10.8 19.1C11.7 20.3 12.7 21.4 13.7 22.5C14.5667 23.3667 15.4333 24.2 16.3 25C17.7 26.2667 19.1667 27.4667 20.7 28.6C21.3667 29.0667 22.0667 29.5333 22.8 30ZM10.9 16.4C9.96667 15.9333 9.03334 15.4667 8.10001 15C10.7 17.5 13.4 19.9 16.1 22.3C18.7 24.5 21.2 26.8 23.3 29.4C22.9667 28.6 22.5667 27.8 22.1 27C21.9 26.6667 21.7 26.3333 21.5 26C21.4333 25.8667 21.3667 25.7667 21.3 25.7C21.1667 25.5667 21.0667 25.4333 21 25.3C19.7 23.5 18.2 21.9 16.5 20.4C14.7667 18.8667 12.9 17.5333 10.9 16.4ZM25.1 30.6C24.8333 30.0667 24.5667 29.5 24.3 28.9C23.7 27.8 23.1 26.7 22.4 25.6C21.1 23.4 19.8 21.3 17.8 19.7C16.7 18.7 15.4 17.9 14.1 17.2C17.9 19.8 21.3 23.3 23.2 27.4C23.8 28.4667 24.3333 29.6 24.8 30.8C25 31 25.2 31.1667 25.4 31.3C25.2667 31.0333 25.1667 30.8 25.1 30.6ZM87.9 28.7C87.7 31.4 88.2 34 89.5 36.5C90.4 38.2 91.6 39.7 93.1 40.9C94.1 41.7 95.2 42.3 96.3 42.9C92 39.2 89.2 34.2 87.9 28.7ZM88.3 26.1C88.2333 26.2333 88.2 26.3667 88.2 26.5C89 32.9 92.4 38.8 97.2 43.2C97.0667 42.9334 96.9333 42.7 96.8 42.5C93.5 37.3 90.5 31.9 88.3 26.1ZM89.1 24.8C91.1 30.2 93.9 35.4 96.9 40.3C96.3 38.3 95.6 36.3 94.6 34.3C93.3 31.4 91.6 28.6 89.6 26C89.5 25.8 89.8 25.6 89.9 25.8C93.9 30.5 97 36.4 98.3 42.5C98.5 42.8333 98.7 43.1667 98.9 43.5C98.7 36.2 95.1 28.9 89.1 24.8ZM110.7 33.6C110.9 40.4 110.1 47.3 108.1 53.8C111.5 47.6 112.5 40.3 110.7 33.6ZM109.7 42C110 38.3 110 34.6 109.8 30.8C109.733 30.6 109.633 30.4 109.5 30.2C109.3 30.8 109.2 31.6 109.1 32.2C108.9 33.4 108.733 34.6333 108.6 35.9C108.4 38.0333 108.233 40.1334 108.1 42.2C107.8 45.8 107.8 49.3 107.8 52.9C108.7 49.3 109.3 45.7 109.7 42ZM108.2 33.6C108.3 33.1 108.3 32.6 108.4 32C107.2 35.3 106.4 38.7 106.2 42.2C106 45.3 106.2 48.4 106.8 51.5C106.8 47.8 107 44.1 107.4 40.4C107.6 38.1333 107.867 35.8667 108.2 33.6ZM103.9 65.2C105.7 66.2667 107.6 67.1333 109.6 67.8C109.867 67.8667 110.1 67.9333 110.3 68C108.3 67 106.3 66 104.4 64.8C101.3 62.8 98.1 60.6 95.6 57.8C97.9 60.7 100.7 63.3 103.9 65.2ZM97.3 57.9C97.5 58.1 97.7 58.2667 97.9 58.4C100.7 59.8 103.6 61.1 106.3 62.7C107.9 63.6334 109.433 64.6334 110.9 65.7C111.3 66.0334 111.7 66.3333 112.1 66.6C108 62.4 103 59.3 97.3 57.9ZM110.2 66.3C108.7 65.2 107.2 64.3 105.6 63.3C103.6 62.1 101.6 61 99.6 59.9C101.4 61.4 103.1 62.9 105 64.1C107.4 65.7 110 67.2 112.7 68.4C111.9 67.7 111.1 67 110.2 66.3ZM98.8 90.2C102.5 90.8 106.2 90.9 109.9 90.7C110.5 90.6334 111.133 90.5667 111.8 90.5C107.9 90.1 104 89.7 100.1 89C93.7 87.9 87.4 86.2 81.1 84.3C86.6 87.3 92.6 89.3 98.8 90.2ZM101 82.8C97.2 82.1 93.4 81.9 89.6 81.9C86.6 81.9 83.6 82.3 80.8 83C92.3 82.7 104.2 84.3 115.1 88.2C110.9 85.4 105.9 83.6 101 82.8ZM116.3 89C116.2 89.1 116.1 89.2 115.9 89.1C109.9 87.4 104 85.8 97.8 84.9C91.8 84 85.8 83.5 79.8 83.5C79.8 83.5 79.8333 83.5333 79.9 83.6C79.9 83.5333 79.9333 83.5 80 83.5C86.8 85.2 93.5 87.1 100.3 88.3C105.7 89.2 111.2 89.5 116.6 90.4C117.067 90.4667 117.5 90.5667 117.9 90.7C118.1 90.7 118.3 90.7333 118.5 90.8C117.767 90.1333 117.033 89.5333 116.3 89ZM58.5 61.9C56.6 59.5 54.4 57.6 51.6 56.2C50 55.3 48.1 54.7 46.3 54.3C45.5667 54.1 44.8 53.9333 44 53.8C46.3 54.7 48.6 55.6 50.7 56.9C52.3 57.9 53.8 59 55.3 60C56.1 60.5333 56.9333 61.0333 57.8 61.5C58.0667 61.6333 58.3 61.7667 58.5 61.9ZM56.6 62.3C55.6667 61.9 54.7333 61.5 53.8 61.1C52.2 60.4333 50.6333 59.7667 49.1 59.1C47.4333 58.3667 45.8667 57.5667 44.4 56.7C47.9 59.6 52.1 61.5 56.6 62.3ZM49.8 58.2C50.9333 58.6667 52.1 59.1333 53.3 59.6C52.4333 59.0667 51.5667 58.5 50.7 57.9C48.4 56.5 45.9 55.5 43.3 54.7C45.3 56 47.5 57.2 49.8 58.2ZM52.9 55.7C51.4 54.9 49.8 54.4 48.2 54C49.5 54.4 50.9 55 52.1 55.6C55.1 57.2 57.6 59.5 59.4 62.3C59.5333 62.3667 59.6667 62.4333 59.8 62.5C59.9333 62.5667 60 62.6334 60 62.7C60.0667 62.7 60.1 62.7 60.1 62.7C58.3 59.8 55.9 57.3 52.9 55.7ZM66.9 46.6C65.8333 43.8667 64.8 41.1333 63.8 38.4C62.4 34.8 61 31.2 60.1 27.5C60.7 34.3 63.4 40.7 66.9 46.6ZM61.3 25.5C63.6 29.4 65.7 33.4 67.3 37.7C68.8 41.7 69.8 45.9 70.5 50.1C71.9 40.9 68.5 31.5 61.3 25.5ZM70 51.4C69.3 46.8 68.2 42.2 66.6 37.9C65.1 33.9 63.2 30 60.9 26.4C62 30.4 63.4 34.2 64.8 38.1C66.4 42.3 68 46.5333 69.6 50.8C69.7333 51 69.8667 51.2 70 51.4ZM24.2 34.6C21.6 34 19 33.8 16.4 34C14.5 34.1 12.5 34.4 10.6 34.9C12.1333 34.7667 13.6667 34.7 15.2 34.7C19.5 34.8 23.7 35.4 27.9 36C26.7 35.5 25.5 35 24.2 34.6ZM15.6 35.6C13.3 35.5 10.9 35.7 8.60001 36.1C7.53334 36.2333 6.46667 36.4667 5.4 36.8C5.13333 36.8667 4.83334 36.9667 4.5 37.1C8.5 37.1 12.4 37.1 16.3 37C18.7 36.8667 21.1333 36.7 23.6 36.5C24.3333 36.4333 25.1 36.3667 25.9 36.3C22.5 35.9 19.1 35.6 15.6 35.6ZM14.5 39.9C16.9 39.8 19.4 39.4 21.8 38.8C23.1 38.4 24.5 37.9 25.8 37.5C25.2 37.5667 24.6 37.6334 24 37.7C21.5333 37.9 19.0333 38.0333 16.5 38.1C12.1 38.3 7.60002 38.1 3.20002 37.7C6.70002 39.4 10.6 40 14.5 39.9Z" fill="#F4F2EC"/>
</svg>
